<svg id="air-conditioner" xmlns="http://www.w3.org/2000/svg" width="56.657" height="39.66" viewBox="0 0 56.657 39.66">
  <g id="Group_47" data-name="Group 47" transform="translate(0 0)">
    <g id="Group_46" data-name="Group 46" transform="translate(0 0)">
      <path id="Path_118" data-name="Path 118" d="M52.825,74.541H1.833A2.782,2.782,0,0,0-1,77.374V96.26a2.782,2.782,0,0,0,2.833,2.833H52.825a2.782,2.782,0,0,0,2.833-2.833V77.374A2.782,2.782,0,0,0,52.825,74.541Zm.944,21.719a.892.892,0,0,1-.944.944H1.833a.892.892,0,0,1-.944-.944V77.374a.946.946,0,0,1,.944-.944H52.825a.892.892,0,0,1,.944.944V96.26Z" transform="translate(1 -74.541)" fill="#1cbe32"/>
      <path id="Path_119" data-name="Path 119" d="M209.78,135.184h7.554a.944.944,0,0,0,0-1.888H209.78a.944.944,0,1,0,0,1.888Z" transform="translate(-185.229 -126.686)" fill="#1cbe32"/>
      <path id="Path_120" data-name="Path 120" d="M80.733,242.41H33.518a.944.944,0,0,0,0,1.888H80.733a.944.944,0,0,0,0-1.888Z" transform="translate(-28.797 -223.524)" fill="#1cbe32"/>
      <path id="Path_121" data-name="Path 121" d="M80.733,208.836H33.518a.944.944,0,1,0,0,1.888H80.733a.944.944,0,0,0,0-1.888Z" transform="translate(-28.797 -193.727)" fill="#1cbe32"/>
      <path id="Path_122" data-name="Path 122" d="M228.928,314.068c-.944-.472-1.416-1.039-1.416-1.511s.567-1.039,1.322-1.605a.9.9,0,0,0,.378-1.228.833.833,0,0,0-1.228-.378c-1.511.85-2.361,1.983-2.361,3.211s.85,2.361,2.361,3.305c.944.472,1.416,1.039,1.416,1.511s-.567,1.039-1.416,1.511a.833.833,0,0,0-.378,1.228.992.992,0,0,0,.85.472.851.851,0,0,0,.472-.094c1.511-.85,2.361-1.983,2.361-3.211A3.789,3.789,0,0,0,228.928,314.068Z" transform="translate(-200.127 -282.812)" fill="#1cbe32"/>
      <path id="Path_123" data-name="Path 123" d="M136.6,330.855c-.944-.472-1.416-1.039-1.416-1.511s.567-1.039,1.322-1.605a.908.908,0,0,0-.85-1.605c-1.511.85-2.361,1.983-2.361,3.211s.85,2.361,2.361,3.305c.944.472,1.416,1.039,1.416,1.511s-.567,1.039-1.416,1.511a.833.833,0,0,0-.378,1.227.992.992,0,0,0,.85.472.852.852,0,0,0,.472-.094c1.511-.85,2.361-1.983,2.361-3.211A3.789,3.789,0,0,0,136.6,330.855Z" transform="translate(-118.186 -297.711)" fill="#1cbe32"/>
      <path id="Path_124" data-name="Path 124" d="M321.256,330.855c-.944-.472-1.416-1.039-1.416-1.511s.567-1.039,1.322-1.605a.9.9,0,0,0,.378-1.228.833.833,0,0,0-1.227-.378c-1.511.85-2.361,1.983-2.361,3.211s.85,2.361,2.361,3.305c.944.472,1.416,1.039,1.416,1.511s-.567,1.039-1.416,1.511a.833.833,0,0,0-.378,1.227.992.992,0,0,0,.85.472.852.852,0,0,0,.472-.094c1.511-.85,2.361-1.983,2.361-3.211A3.789,3.789,0,0,0,321.256,330.855Z" transform="translate(-282.068 -297.711)" fill="#1cbe32"/>
    </g>
  </g>
</svg>
