<svg xmlns="http://www.w3.org/2000/svg" width="53.214" height="20.904" viewBox="0 0 53.214 20.904">
  <g id="car_icon" data-name="car icon" transform="translate(-317.463 -585.532)">
    <path id="Path_134" data-name="Path 134" d="M321.167,603.1c-2.916.43-3.833-.23-3.689-2.928a38.042,38.042,0,0,1,.933-6.184,2.3,2.3,0,0,1,1.507-1.341c4.156-.942,7.642-3.192,11.279-5.264,4.291-2.443,9.094-1.989,13.784-1.3a27.075,27.075,0,0,1,12.562,5.322,8.913,8.913,0,0,0,3.051,1.231c2.213.589,4.481.982,6.685,1.6a3.85,3.85,0,0,1,3.17,4.116c-.028.958.242,1.927.227,2.888-.025,1.353-.58,2.25-2.173,2.029a15.682,15.682,0,0,0-1.992-.012c.2-2.419-.331-4.6-2.363-5.835a7.832,7.832,0,0,0-4.153-1.08c-3.186.126-5.205,3-5,6.78H332.734c.11-2.336-.4-4.579-2.551-5.788a7.967,7.967,0,0,0-4.183-.973C322.873,596.562,320.887,599.481,321.167,603.1Zm21.509-15.545c.157,1.292.359,2.385.405,3.487.043,1.022.552,1.255,1.464,1.283,3.06.086,6.12.239,9.18.35a11.286,11.286,0,0,0,1.243-.089c.028-.154.052-.31.08-.463A20.245,20.245,0,0,0,342.676,587.551Zm-13.544,3.941c.034.141.071.282.1.424H341.1c-.193-1.479-.381-2.922-.586-4.509C336.123,587.511,332.216,588.37,329.131,591.492Z" fill="#1cbe32"/>
    <path id="Path_135" data-name="Path 135" d="M448.637,625.028a4.391,4.391,0,1,1-.138,8.781,4.391,4.391,0,0,1,.138-8.781Z" transform="translate(-87.838 -27.374)" fill="#1cbe32"/>
    <path id="Path_136" data-name="Path 136" d="M334.05,629.417a4.369,4.369,0,1,1,4.367,4.38A4.356,4.356,0,0,1,334.05,629.417Z" transform="translate(-11.496 -27.361)" fill="#1cbe32"/>
  </g>
</svg>
