<svg xmlns="http://www.w3.org/2000/svg" width="42.201" height="37.285" viewBox="0 0 42.201 37.285">
  <g id="Group_49" data-name="Group 49" transform="translate(-1144.845 -726.684)">
    <g id="carpenters" transform="translate(833.085 266.234)">
      <path id="Path_158" data-name="Path 158" d="M346.71,569.525c-.243.155-.486.311-.73.464-.8.5-1.61.983-2.389,1.512a.746.746,0,0,1-.97.043,3.079,3.079,0,0,0-.467-.224,1.01,1.01,0,0,0-.011.331c.206.542-.052.848-.512,1.066a2.8,2.8,0,0,0-.282.171c-.679.429-1.316,1.144-2.252.238.453,1.022-.187,1.365-.835,1.7a.886.886,0,0,0-.12.074c-.6.434-1.2.868-1.937.089a1.447,1.447,0,0,0-.016.422c.2.546-.058.843-.523,1.056a4.324,4.324,0,0,0-.442.272c-.628.388-1.23,1-1.978.142-.047.13-.082.176-.072.205.278.742-.116,1.129-.733,1.4a.444.444,0,0,0-.04.024,3.7,3.7,0,0,1-1.084.643,3.2,3.2,0,0,1-1.185-.273c.479.907-.187,1.219-.8,1.561a.448.448,0,0,0-.04.024c-.635.413-1.249,1.009-1.98.2-.07.073-.111.1-.106.112a1.139,1.139,0,0,1-.818,1.508.326.326,0,0,0-.079.05c-.64.483-1.278.98-2.044.184-.035.1-.06.137-.052.158.311.784-.122,1.181-.761,1.476a1.3,1.3,0,0,0-.2.123c-.61.429-1.213.915-1.906.171-.067.077-.107.1-.1.118a1.035,1.035,0,0,1-.725,1.419.752.752,0,0,0-.122.072c-.657.418-1.274,1.091-2.1.211-.028.142-.054.192-.041.228.274.752-.184,1.074-.754,1.4-.785.448-.767.476-1.4-.159-1.224-1.219-2.451-2.436-3.64-3.616l20.068-20.076c.907.936,1.861,1.931,2.827,2.915.726.74,1.457,1.478,2.21,2.19a1.048,1.048,0,0,0,.647.26c2.672.018,5.344.013,8.016.014h.448Z" transform="translate(-0.612 -90.558)" fill="#1cbe32"/>
      <path id="Path_159" data-name="Path 159" d="M489.3,493.784c-1.651,0-3.3.01-4.949-.011a1.023,1.023,0,0,1-.648-.262c-1.451-1.415-2.882-2.85-4.315-4.283a.975.975,0,0,1-.026-1.591q4.01-4.055,8.027-8.1a1.051,1.051,0,0,1,1.444-.179,1.15,1.15,0,0,1,.434,1.486c-.275.623-.215.853.435,1.063.8.259,1.63.447,2.452.648a13.3,13.3,0,0,1,6.547,3.422,12.391,12.391,0,0,1,1.286,1.672.7.7,0,0,1-.165,1c-1.647,1.619-3.267,3.265-4.912,4.885a.962.962,0,0,1-.611.244c-1.666.02-3.331.011-5,.011C489.3,493.786,489.3,493.785,489.3,493.784Zm-5.651-6.738,9.466,4.974,2.375-2.477a11.045,11.045,0,0,0-9.286-4.816.518.518,0,0,0-.342.1C485.122,485.55,484.4,486.287,483.647,487.046Z" transform="translate(-146.165 -16.343)" fill="#1cbe32"/>
      <path id="Path_160" data-name="Path 160" d="M317.324,471.843l1.048.939-3.486,2.712-3.126-3.2,2.67-3.45.814,1.092c.7-.707,1.295-1.266,1.831-1.874a1.472,1.472,0,0,0,.194-.757,1.652,1.652,0,0,1,.511-1.062c1.274-1.237,2.563-2.465,3.764-3.771a6.407,6.407,0,0,1,4.67-2.007,22.032,22.032,0,0,1,7.33,1.074.932.932,0,0,1,.165.089,1.635,1.635,0,0,1-1.55.825,9.549,9.549,0,0,0-4.639.835,5.5,5.5,0,0,0-1.364.908,2.226,2.226,0,0,0-.157,3.316c.776.864,1.624,1.664,2.443,2.49.752.759,1.508,1.513,2.224,2.231l-2.477,2.5c-.594-.619-1.229-1.288-1.873-1.949q-.806-.827-1.629-1.639a4.522,4.522,0,0,0-6.542-.018C317.908,471.362,317.646,471.565,317.324,471.843Z" transform="translate(0 0)" fill="#1cbe32"/>
      <path id="Path_161" data-name="Path 161" d="M518.63,641.238c1.716-1.073,3.389-2.127,5.079-3.155.1-.062.376.043.5.152,1.7,1.542,3.384,3.1,5.074,4.651q2.2,2.025,4.409,4.051c1.156,1.065,1.169,2.073.05,3.188-.757.755-1.506,1.517-2.272,2.263a1.8,1.8,0,0,1-2.749-.042q-4.98-5.442-9.938-10.908C518.738,641.391,518.705,641.338,518.63,641.238Z" transform="translate(-180.844 -155.269)" fill="#1cbe32"/>
    </g>
  </g>
</svg>
