<svg xmlns="http://www.w3.org/2000/svg" width="46.686" height="37.366" viewBox="0 0 46.686 37.366">
  <g id="cctv_camera" data-name="cctv camera" transform="translate(-83.9 -91.504)">
    <path id="Path_714" data-name="Path 714" d="M236.6,96.133c.3-.692.6-1.376.9-2.051s.6-1.341.891-2.008a.809.809,0,0,1,1.186-.467q6.14,2.713,12.271,5.426,6.153,2.713,12.3,5.434l5.582,2.466c.1.043.2.1.346.173-.3.251-.58.476-.857.692-1.186.952-2.371,1.9-3.548,2.856a.526.526,0,0,1-.632.078c-2.908-1.3-5.815-2.579-8.723-3.868q-5.218-2.311-10.428-4.612L236.9,96.28C236.808,96.237,236.713,96.185,236.6,96.133Z" transform="translate(-139.486)" fill="#4caf48"/>
    <path id="Path_715" data-name="Path 715" d="M204.307,155.8c6.819,3.011,13.6,6.014,20.44,9.043-.952,2.146-1.886,4.275-2.847,6.438l-1.627-.71q-8.359-3.7-16.719-7.39c-.433-.19-.865-.381-1.307-.58a.812.812,0,0,1-.467-1.168c.8-1.809,1.592-3.609,2.388-5.417C204.212,155.947,204.255,155.887,204.307,155.8Z" transform="translate(-107.591 -58.732)" fill="#4caf48"/>
    <path id="Path_716" data-name="Path 716" d="M152.273,285.9c1.134.5,2.241,1,3.392,1.5-.121.277-.225.545-.346.8-1.35,3.055-2.709,6.118-4.05,9.181a1.071,1.071,0,0,1-1.116.727c-3.73-.017-7.459-.009-11.189-.009H138.6v-3.738h.4c2.76,0,5.521-.009,8.273,0a1.776,1.776,0,0,0,1.748-1.142c1.047-2.362,2.094-4.716,3.133-7.079C152.186,286.082,152.221,286.013,152.273,285.9Z" transform="translate(-49.967 -177.574)" fill="#4caf48"/>
    <path id="Path_717" data-name="Path 717" d="M83.909,287.2a3.686,3.686,0,0,1,1.947.77,4.026,4.026,0,0,1,1.722,3.28q.039,6.166,0,12.34a4.183,4.183,0,0,1-3.384,4.015,2.648,2.648,0,0,1-.294.026C83.909,300.821,83.909,294.028,83.909,287.2Z" transform="translate(0 -178.762)" fill="#4caf48"/>
    <path id="Path_718" data-name="Path 718" d="M455.7,269.426c.666-1.506,1.324-2.994,2-4.526,1.523.675,3.02,1.341,4.526,2A4.5,4.5,0,0,1,455.7,269.426Z" transform="translate(-339.626 -158.391)" fill="#4caf48"/>
  </g>
</svg>
