<svg xmlns="http://www.w3.org/2000/svg" width="37.21" height="37.285" viewBox="0 0 37.21 37.285">
  <g id="electrician" transform="translate(-596.496 -589.709)">
    <path id="Path_149" data-name="Path 149" d="M606.535,613.883c-2.992-4.156-.819-8.905,2.433-11.229L620.374,614.8a10.282,10.282,0,0,1-5.434,3.166A6.727,6.727,0,0,1,609,616.494c-1.331,1.251-2.634,2.478-3.994,3.756.343.265.641.512.955.739a15.57,15.57,0,1,0-6.209-15.508c-.1.5-.129,1.013-.22,1.514-.024.129-.134.323-.238.347-.926.218-1.859.407-2.794.606a18.341,18.341,0,0,1,13.262-17.463A18.631,18.631,0,1,1,600.34,619.7Z" transform="translate(0)" fill="#1cbe32"/>
    <path id="Path_150" data-name="Path 150" d="M666.652,636.457c-.65-.69-1.256-1.336-1.892-2.013.278-.265.539-.51.8-.755,1.162-1.1,2.32-2.193,3.486-3.282a1.4,1.4,0,1,1,1.9,2.039q-1.94,1.827-3.885,3.651C666.937,636.209,666.813,636.314,666.652,636.457Z" transform="translate(-53.066 -31.254)" fill="#1cbe32"/>
    <path id="Path_151" data-name="Path 151" d="M694.738,666.339l-1.888-2.013c.626-.592,1.218-1.158,1.814-1.719q1.222-1.149,2.451-2.293a1.406,1.406,0,1,1,1.908,2.028q-1.977,1.86-3.956,3.72C694.972,666.152,694.867,666.23,694.738,666.339Z" transform="translate(-74.903 -54.48)" fill="#1cbe32"/>
  </g>
</svg>
