<svg xmlns="http://www.w3.org/2000/svg" width="37.566" height="47.006" viewBox="0 0 37.566 47.006">
  <g id="painting" transform="translate(-116.478 -46.609)">
    <g id="iconos_23_" transform="translate(116.478 46.609)">
      <path id="Path_617" data-name="Path 617" d="M353.311,159.634l1.332-.913.335-.223-4.768-7,12.338-8.409a2,2,0,0,0,.95-1.369,1.969,1.969,0,0,0-.419-1.434l-4.013-5.876a1.854,1.854,0,0,0-1.592-1.108,2.254,2.254,0,0,0-1.285.456l-1.443.987c.093.1.177.2.27.307a15.514,15.514,0,0,1,.978,1.285h0l.223.335,1.006-.689,3.632,5.336-12.338,8.409a1.974,1.974,0,0,0-.922,1.322,2.083,2.083,0,0,0,.391,1.481l5,7.338Z" transform="translate(-326.053 -125.227)" fill="#1cbe32"/>
      <path id="Path_618" data-name="Path 618" d="M146.271,327.1c-.074-.112-.158-.214-.233-.326h0a12.945,12.945,0,0,1-.819-1.4c-.065-.13-.112-.251-.168-.372l-2.151,1.462,1.36,2Z" transform="translate(-140.44 -299.077)" fill="#1cbe32"/>
      <path id="Path_619" data-name="Path 619" d="M394.753,403.5l6.649,9.759a1.689,1.689,0,0,0,2.207-.037c1.3-.931.521-1.8.521-1.8l-6.993-9.843,1.332-.913-.726-1.173-1.909,1.3-1.332.913-2,1.36.913,1.332Z" transform="translate(-366.797 -366.639)" fill="#1cbe32"/>
      <path id="Path_620" data-name="Path 620" d="M195.61,143.224h0a15.583,15.583,0,0,0-.987-1.285A19.835,19.835,0,0,0,192.6,139.9l-20.4,13.9a12.859,12.859,0,0,0,.94,2.784,10.8,10.8,0,0,0,.8,1.406h0a12.094,12.094,0,0,0,3.259,3.147l20.4-13.9A18.867,18.867,0,0,0,195.61,143.224Z" transform="translate(-167.011 -131.213)" fill="#1cbe32"/>
      <path id="Path_621" data-name="Path 621" d="M138.847,51.981l-3.194-4.973a1.231,1.231,0,0,0-2.03,1.3l.084.13a1.265,1.265,0,0,0-.726.214,1.112,1.112,0,0,0-.484,1.481l.708,1.108a1.231,1.231,0,0,0-2.03,1.3l-.708-1.108a1.231,1.231,0,0,0-2.03,1.3l.354.549a1.231,1.231,0,0,0-2.03,1.3l.354.549a1.231,1.231,0,0,0-2.03,1.3l-.708-1.108a1.231,1.231,0,0,0-2.03,1.3l.708,1.108a1.119,1.119,0,0,0-1.546-.177,1.312,1.312,0,0,0-.521.615l-.67-1.043a1.231,1.231,0,0,0-2.03,1.3l.354.549a1.231,1.231,0,0,0-2.03,1.3l3.194,4.973a1.231,1.231,0,0,0,2.03-1.3l-.354-.549a1.119,1.119,0,0,0,1.546.177,1.312,1.312,0,0,0,.521-.615l.615,1.071a1.231,1.231,0,0,0,2.03-1.3l-.708-1.108a1.231,1.231,0,0,0,2.03-1.3l.708,1.108a1.231,1.231,0,0,0,2.03-1.3L129.9,59.6a1.231,1.231,0,0,0,2.03-1.3l-.354-.549a1.231,1.231,0,0,0,2.03-1.3l.708,1.108a.972.972,0,0,0,1.062.363,1.414,1.414,0,0,0,.913-.624.965.965,0,0,0,.056-1.052l-.708-1.108a1.231,1.231,0,0,0,2.03-1.3l-.084-.13a1.327,1.327,0,0,0,.726-.2,1.392,1.392,0,0,0,.549-.67A.815.815,0,0,0,138.847,51.981Z" transform="translate(-116.478 -46.609)" fill="#1cbe32"/>
    </g>
  </g>
</svg>
