<svg xmlns="http://www.w3.org/2000/svg" width="45.081" height="42.61" viewBox="0 0 45.081 42.61">
  <g id="pest_icon" data-name="pest icon" transform="translate(-472.8 -356.163)">
    <path id="Path_137" data-name="Path 137" d="M516.957,386.3V368.9a1.771,1.771,0,0,1,1.767-1.9.569.569,0,0,0,.613-.625,1.787,1.787,0,0,1,1.8-1.728c.9-.006,1.794,0,2.691,0h.278v-4.237h-.272c-.768,0-1.537,0-2.3,0a1.6,1.6,0,0,1-1.671-1.653,7.476,7.476,0,0,1,.069-1.42,1.522,1.522,0,0,1,1.5-1.178q4.785,0,9.573,0a1.58,1.58,0,0,1,1.564,1.54,8.351,8.351,0,0,1-.039,1.423,1.548,1.548,0,0,1-1.564,1.289c-.792.006-1.585,0-2.374,0h-.275v4.237h2.921a1.783,1.783,0,0,1,1.827,1.719c.027.443.209.616.655.634a1.764,1.764,0,0,1,1.752,1.818q0,6.835-.006,13.669,0,3.879.009,7.756,0,3.9,0,7.8a.644.644,0,0,1-.715.721H517.672a.63.63,0,0,1-.709-.718c0-1.429,0-2.861,0-4.29v-.254c-.3-.042-.589-.057-.858-.123a3,3,0,0,1-2.269-2.129.406.406,0,0,0-.353-.335,4.325,4.325,0,0,1-3.34-2.822,4.545,4.545,0,0,1-.287-1.534c-.03-1.979,0-3.958,0-5.938,0-2.165,0-4.329-.015-6.494a3.213,3.213,0,0,0-3.193-3.226c-.371-.009-.738,0-1.139,0V372c0,.55-.209.759-.762.759-1.148,0-2.3.009-3.441-.009a1.1,1.1,0,0,1-.58-.179c-.819-.547-1.623-1.118-2.428-1.686-.535-.377-.529-.828,0-1.2.816-.568,1.623-1.145,2.446-1.7a1.013,1.013,0,0,1,.535-.17c1.172-.015,2.344-.009,3.513-.009a.677.677,0,0,1,.715.718c0,.362,0,.727,0,1.139h.41a6.7,6.7,0,0,1,2.039.2,4.468,4.468,0,0,1,3.139,4.165c.012,4.168,0,8.335.006,12.5a3.233,3.233,0,0,0,2.359,3.109c.069.018.141.03.221.051A3.172,3.172,0,0,1,516.957,386.3Zm1.256,11.209h16V374q0-2.57,0-5.139a.529.529,0,0,0-.565-.607c-.057,0-.114-.009-.17-.015a1.772,1.772,0,0,1-1.665-1.71c-.036-.481-.2-.634-.694-.634h-9.89c-.41,0-.625.191-.646.559a1.787,1.787,0,0,1-1.716,1.791c-.547.051-.661.176-.661.733v28.259C518.213,397.325,518.213,397.4,518.213,397.5Zm8-40.093h-4.652c-.335,0-.451.114-.454.445,0,.266,0,.532,0,.8,0,.395.111.5.5.5h9.229c.362,0,.475-.117.478-.478,0-.257,0-.517,0-.774,0-.392-.1-.5-.505-.5Q528.514,357.413,526.217,357.411Zm-21.978,11.663c-.075-.006-.129-.015-.182-.018-.759,0-1.519.012-2.275-.006a1.158,1.158,0,0,0-.759.239c-.451.338-.918.652-1.4.993.129.09.23.164.335.239.389.275.774.559,1.172.816a.988.988,0,0,0,.484.164c.783.018,1.567.006,2.35.006.087,0,.173-.009.275-.015ZM516.945,392.2v-4.592a1.81,1.81,0,0,0-1.976,1.626c-.021.442-.024.888,0,1.33A1.814,1.814,0,0,0,516.945,392.2Zm10.1-27.557v-4.21h-1.653v4.21Z" transform="translate(-17.593 0)" fill="#1cbe32"/>
    <path id="Path_138" data-name="Path 138" d="M473.427,387.7c.562.1,1.085.194,1.609.287,1.6.284,3.208.565,4.807.861a1.1,1.1,0,0,1,.511.236.557.557,0,0,1,.1.673.575.575,0,0,1-.61.344c-.535-.075-1.064-.176-1.6-.269l-4.835-.855a.67.67,0,0,1-.6-.517.6.6,0,0,1,.284-.643A1.317,1.317,0,0,1,473.427,387.7Z" transform="translate(-0.002 -22.108)" fill="#1cbe32"/>
    <path id="Path_139" data-name="Path 139" d="M475.49,412.442c.344-.075.685-.161,1.031-.224q2.547-.462,5.1-.915a.637.637,0,0,1,.765.5.624.624,0,0,1-.532.738l-5.145.921a1.367,1.367,0,0,1-.191.009Q476,412.951,475.49,412.442Z" transform="translate(-1.886 -38.646)" fill="#1cbe32"/>
    <path id="Path_140" data-name="Path 140" d="M475.741,402.551c-.735,0-1.471,0-2.2,0a.625.625,0,1,1,0-1.244c1.462,0,2.924,0,4.383,0a.626.626,0,0,1,.655.4.538.538,0,0,1-.135.646.922.922,0,0,1-.493.194C477.212,402.563,476.477,402.551,475.741,402.551Z" transform="translate(-0.035 -31.646)" fill="#1cbe32"/>
    <path id="Path_141" data-name="Path 141" d="M473.6,415.14q.511.511,1.026,1.022c-.407.078-.813.176-1.223.221a.579.579,0,0,1-.6-.52.6.6,0,0,1,.407-.682A2.087,2.087,0,0,1,473.6,415.14Z" transform="translate(0 -41.345)" fill="#1cbe32"/>
    <path id="Path_142" data-name="Path 142" d="M583.908,403.065c-.365-.541-.72-1.058-1.07-1.582a.628.628,0,0,1,.443-1.017.58.58,0,0,1,.586.3c.359.526.721,1.052,1.07,1.585a.322.322,0,0,0,.353.152,11.46,11.46,0,0,1,1.322.006.328.328,0,0,0,.359-.149c.359-.547.727-1.085,1.1-1.623A.617.617,0,0,1,589,400.6a.625.625,0,0,1,.1.852c-.287.431-.58.855-.87,1.283-.072.108-.143.212-.227.338.072.063.138.12.2.173a3.5,3.5,0,0,1,1.031,1.411.625.625,0,0,1-.607.93c-.912.009-1.824,0-2.736,0-.864,0-1.728,0-2.592,0-.61,0-.873-.407-.637-.972A3.6,3.6,0,0,1,583.908,403.065Zm3.594,1.268a2.224,2.224,0,0,0-3.112,0Z" transform="translate(-76.953 -31.045)" fill="#1cbe32"/>
    <path id="Path_143" data-name="Path 143" d="M595.207,423.3v-3.1c0-.538.23-.765.768-.759.637.009,1.274.024,1.91.027a.688.688,0,0,1,.58.29,4.665,4.665,0,0,1-1.842,7.164c-.17.072-.347.129-.523.188a.622.622,0,0,1-.894-.634C595.2,425.416,595.207,424.358,595.207,423.3Zm1.262,2.272a.993.993,0,0,0,.108-.033,3.08,3.08,0,0,0,1.214-1.253,3.564,3.564,0,0,0,.042-3.238c-.06-.135-.194-.314-.314-.332a8.129,8.129,0,0,0-1.049-.015Z" transform="translate(-85.809 -44.359)" fill="#1cbe32"/>
    <path id="Path_144" data-name="Path 144" d="M582.547,427.139a4.212,4.212,0,0,1-.436-.1,4.654,4.654,0,0,1-2.233-7.2.833.833,0,0,1,.732-.38c.622.009,1.244-.018,1.866-.021a.637.637,0,0,1,.738.718q0,3.076,0,6.15c0,.081-.015.161-.021.239Q582.87,426.847,582.547,427.139Zm-.616-1.543a.583.583,0,0,0,.033-.1q0-2.31,0-4.622c0-.144-.063-.179-.191-.173-.266.009-.532.018-.8.012a.282.282,0,0,0-.284.17,3.483,3.483,0,0,0-.392,2.523A3.136,3.136,0,0,0,581.932,425.6Z" transform="translate(-74.423 -44.359)" fill="#1cbe32"/>
    <path id="Path_145" data-name="Path 145" d="M583.048,477.59h-3.489a.625.625,0,0,1-.622-.41.588.588,0,0,1,.212-.709.782.782,0,0,1,.4-.126c2.35-.009,4.7-.006,7.05,0a.628.628,0,0,1,.655.634.637.637,0,0,1-.673.616Q584.818,477.588,583.048,477.59Z" transform="translate(-74.376 -84.247)" fill="#1cbe32"/>
    <path id="Path_146" data-name="Path 146" d="M583.056,466.6h-3.393c-.568,0-.888-.362-.739-.825a.65.65,0,0,1,.706-.43h6.18c.233,0,.469,0,.7,0,.445,0,.741.254.741.625s-.284.628-.732.628c-1.154,0-2.311,0-3.465,0Z" transform="translate(-74.37 -76.54)" fill="#1cbe32"/>
    <path id="Path_147" data-name="Path 147" d="M583.107,454.4h3.537a.611.611,0,0,1,.595.377.527.527,0,0,1-.108.646.851.851,0,0,1-.508.221c-2.3.015-4.6.012-6.9.006-.493,0-.673-.138-.762-.535a.6.6,0,0,1,.565-.712h3.582Z" transform="translate(-74.412 -68.867)" fill="#1cbe32"/>
    <path id="Path_148" data-name="Path 148" d="M590.95,443.809c.215-.2.431-.392.643-.589A.554.554,0,0,1,590.95,443.809Z" transform="translate(-82.826 -61.029)" fill="#1cbe32"/>
  </g>
</svg>
