<svg xmlns="http://www.w3.org/2000/svg" width="38.449" height="37.366" viewBox="0 0 38.449 37.366">
  <g id="plumbers" transform="translate(-705.93 -522.21)">
    <path id="Path_152" data-name="Path 152" d="M829.5,575.983v3.16H818.84a1.979,1.979,0,0,1-.019-.21c0-.917,0-1.833,0-2.75,0-.177.05-.241.231-.235.449.012.9,0,1.36,0V570.1h-5.855v1.558h-3.2V561.02h3.191V562.6h.329q4.354,0,8.709,0a4.259,4.259,0,0,1,4.308,3.846,5.235,5.235,0,0,1,.021.578q0,4.307,0,8.613c0,.31,0,.31.318.31.395,0,.788,0,1.182.006A.721.721,0,0,1,829.5,575.983Z" transform="translate(-85.117 -31.335)" fill="#1cbe32"/>
    <path id="Path_153" data-name="Path 153" d="M724.063,540.329c-.085.006-.156.015-.225.015-.909,0-1.818,0-2.725.006-.195,0-.248-.06-.243-.247.012-.441,0-.88,0-1.358H711.91a4.267,4.267,0,0,1-4.4-4.4V525.4H705.93V522.21h10.645v3.176h-1.562v5.866c.075.006.152.015.229.015,1.793,0,3.586,0,5.379,0,.2,0,.264-.054.258-.256-.013-.439,0-.88,0-1.335h3.189C724.063,533.234,724.063,536.776,724.063,540.329Z" fill="#1cbe32"/>
    <path id="Path_154" data-name="Path 154" d="M865.491,669.16a.756.756,0,0,1,.087.094,31.326,31.326,0,0,1,2.54,4.759,2.923,2.923,0,0,1-3.353,4.122,2.89,2.89,0,0,1-2.211-2.839,3.8,3.8,0,0,1,.268-1.167,24.009,24.009,0,0,1,2.078-4.021C865.088,669.794,865.289,669.484,865.491,669.16Z" transform="translate(-126.458 -118.648)" fill="#1cbe32"/>
  </g>
</svg>
