<svg xmlns="http://www.w3.org/2000/svg" width="32.763" height="32.694" viewBox="0 0 32.763 32.694">
  <g id="repair" transform="translate(-592.93 -542.08)">
    <path id="Path_155" data-name="Path 155" d="M592.93,542.08c.908.271,1.766.473,2.576.793a4.471,4.471,0,0,1,1.02.86l-.473.268,11.111,10.992,1.159-1.106,3,3.155,1.088-1.262c.174.162.273.251.367.343q5.047,4.991,10.1,9.979a4,4,0,1,1-5.364,5.945c-3.547-3.466-7.055-6.968-10.579-10.457a2.356,2.356,0,0,1-.152-.181l1.1-1.047-2.993-3.056c.349-.354.7-.708,1.081-1.095-3.7-3.659-7.363-7.285-11.039-10.921l-.389.343a2.774,2.774,0,0,1-1.066-1.525C593.347,543.446,593.127,542.8,592.93,542.08Z" fill="#1cbe32"/>
    <path id="Path_156" data-name="Path 156" d="M607.042,662.653c.7.7,1.346,1.346,2.015,2.018-.1.105-.186.2-.281.295-1.212,1.2-2.428,2.4-3.632,3.607a.459.459,0,0,0-.1.372,5.5,5.5,0,0,1-4.464,7.008,5.06,5.06,0,0,1-2.872-.32c1.375-1.408,2.751-2.815,4.152-4.25l-3.064-2.983-4.255,4.2a5.177,5.177,0,0,1-.36-2.831,5.544,5.544,0,0,1,7.034-4.573.433.433,0,0,0,.474-.141q2.4-2.371,4.821-4.73c.064-.063.134-.12.2-.177l1.425,1.475C607.805,661.934,607.437,662.282,607.042,662.653Z" transform="translate(-1.018 -101.258)" fill="#1cbe32"/>
    <path id="Path_157" data-name="Path 157" d="M720.492,549.786l3.038,2.95,4.2-4.21c.087.228.165.4.216.575a5.507,5.507,0,0,1-5.668,7.037,7.7,7.7,0,0,1-1.207-.194.434.434,0,0,0-.474.127c-1.116,1.118-2.243,2.227-3.366,3.338-.088.087-.181.168-.325.3L715,557.663c-.389.447-.722.83-1.057,1.213l-1.511-1.6c.319-.323.716-.738,1.126-1.141q1.762-1.734,3.535-3.457a.462.462,0,0,0,.145-.527,5.287,5.287,0,0,1,1.525-5.517,5.514,5.514,0,0,1,5.782-1.152.426.426,0,0,1,.09.048c.009.006.013.018,0,0Z" transform="translate(-102.485 -2.614)" fill="#1cbe32"/>
  </g>
</svg>
