<svg id="vacuum" xmlns="http://www.w3.org/2000/svg" width="38.913" height="36.692" viewBox="0 0 38.913 36.692">
  <path id="Path_125" data-name="Path 125" d="M34.58,16.107a12.133,12.133,0,0,0-10.751-.189c-3.37,1.489-5.8,4.77-7.235,7.236a1.436,1.436,0,0,0-1.28,2.482c-.131.292-.211.487-.241.564L8.1,41.518A1.437,1.437,0,0,0,6.86,44.111l.047.024L5.338,47.583h-3.9a1.439,1.439,0,1,0,0,2.879h7.2a1.439,1.439,0,1,0,0-2.879H8.5l1-2.193a1.431,1.431,0,0,0,1.175-2.58L17.9,26.937a1.435,1.435,0,0,0,1.309-2.551c1.231-2.075,3.2-4.694,5.783-5.834a9.348,9.348,0,0,1,8.148.049,5.43,5.43,0,0,1,2.734,4.367c.4,3.7.061,6.179-1.009,7.373a2.647,2.647,0,0,1-.318.294v3.222a5.665,5.665,0,0,0,2.461-1.593c1.664-1.853,2.229-5,1.729-9.606A8.378,8.378,0,0,0,34.58,16.107Z" transform="translate(0 -14.76)" fill="#1cbe32"/>
  <path id="Path_126" data-name="Path 126" d="M242.707,213.718a6.2,6.2,0,0,1,2.627.587V202.922c0-.8.076-.72-.72-.72H241.8c-.8,0-8.817.66-10.936,11.134l-1.36,8.658c0,.8.644,1.8,1.439,1.8h6.831a6.242,6.242,0,0,1,4.937-10.076Z" transform="translate(-212.226 -188.092)" fill="#1cbe32"/>
  <path id="Path_127" data-name="Path 127" d="M349.179,375.712a4.881,4.881,0,0,0-.72-.576,4.81,4.81,0,1,0,.345,7.806,4.841,4.841,0,0,0,1.016-1.086,4.789,4.789,0,0,0,.08-5.256A4.923,4.923,0,0,0,349.179,375.712Zm-3.347,1.037a2.414,2.414,0,1,1-2.414,2.414A2.414,2.414,0,0,1,345.833,376.749Z" transform="translate(-315.352 -347.285)" fill="#1cbe32"/>
</svg>
