<?xml version="1.0" encoding="utf-8"?>
<!-- Generator: Adobe Illustrator 23.0.5, SVG Export Plug-In . SVG Version: 6.00 Build 0)  -->
<svg version="1.1" id="Layer_1" xmlns="http://www.w3.org/2000/svg" xmlns:xlink="http://www.w3.org/1999/xlink" x="0px" y="0px"
	 viewBox="0 0 651 585.3" style="enable-background:new 0 0 651 585.3;" xml:space="preserve">
<style type="text/css">
	.st0{fill:#4DB048;}
</style>
<g transform="translate(1 1)">
	<g>
		<g>
			<path class="st0" d="M604.3,79H44.7c-17.6,0-31.1,13.5-31.1,31.1v207.2c0,17.6,13.5,31.1,31.1,31.1h559.6
				c17.6,0,31.1-13.5,31.1-31.1V110.1C635.4,92.5,621.9,79,604.3,79z M614.6,317.3c0,6.2-4.1,10.4-10.4,10.4H44.7
				c-6.2,0-10.4-4.1-10.4-10.4V110.1c0-6.2,5.2-10.4,10.4-10.4h559.6c6.2,0,10.4,4.1,10.4,10.4L614.6,317.3L614.6,317.3z"/>
			<path class="st0" d="M283.1,172.3H366c6.2,0,10.4-4.1,10.4-10.4s-4.1-10.4-10.4-10.4h-82.9c-6.2,0-10.4,4.1-10.4,10.4
				S276.8,172.3,283.1,172.3z"/>
			<path class="st0" d="M583.6,286.2H65.4c-6.2,0-10.4,4.1-10.4,10.4c0,6.2,4.1,10.4,10.4,10.4h518.1c6.2,0,10.4-4.1,10.4-10.4
				C593.9,290.4,589.8,286.2,583.6,286.2z"/>
			<path class="st0" d="M583.6,244.8H65.4c-6.2,0-10.4,4.1-10.4,10.4c0,6.2,4.1,10.4,10.4,10.4h518.1c6.2,0,10.4-4.1,10.4-10.4
				C593.9,248.9,589.8,244.8,583.6,244.8z"/>
			<path class="st0" d="M329.7,422c-10.4-5.2-15.5-11.4-15.5-16.6c0-5.2,6.2-11.4,14.5-17.6c5.2-2.1,6.2-8.3,4.1-13.5
				c-2.1-5.2-8.3-7.3-13.5-4.1c-16.6,9.3-25.9,21.8-25.9,35.2c0,13.5,9.3,25.9,25.9,36.3c10.4,5.2,15.5,11.4,15.5,16.6
				s-6.2,11.4-15.5,16.6c-5.2,2.1-7.3,8.3-4.1,13.5c2.1,3.1,5.2,5.2,9.3,5.2c2.1,0,3.1,0,5.2-1c16.6-9.3,25.9-21.8,25.9-35.2
				C355.6,443.7,346.3,430.3,329.7,422z"/>
			<path class="st0" d="M215.7,442.7c-10.4-5.2-15.5-11.4-15.5-16.6s6.2-11.4,14.5-17.6c5.2-2.1,7.3-8.3,4.1-13.5
				c-2.1-5.2-8.3-7.3-13.5-4.1c-16.6,9.3-25.9,21.8-25.9,35.2c0,13.5,9.3,25.9,25.9,36.3c10.4,5.2,15.5,11.4,15.5,16.6
				c0,5.2-6.2,11.4-15.5,16.6c-5.2,2.1-7.3,8.3-4.1,13.5c2.1,3.1,5.2,5.2,9.3,5.2c2.1,0,3.1,0,5.2-1c16.6-9.3,25.9-21.8,25.9-35.2
				C241.6,464.5,232.3,451,215.7,442.7z"/>
			<path class="st0" d="M443.7,442.7c-10.4-5.2-15.5-11.4-15.5-16.6s6.2-11.4,14.5-17.6c5.2-2.1,6.2-8.3,4.1-13.5
				c-2.1-5.2-8.3-7.3-13.5-4.1c-16.6,9.3-25.9,21.8-25.9,35.2c0,13.5,9.3,25.9,25.9,36.3c10.4,5.2,15.5,11.4,15.5,16.6
				c0,5.2-6.2,11.4-15.5,16.6c-5.2,2.1-7.3,8.3-4.1,13.5c2.1,3.1,5.2,5.2,9.3,5.2c2.1,0,3.1,0,5.2-1c16.6-9.3,25.9-21.8,25.9-35.2
				C469.6,464.5,460.2,451,443.7,442.7z"/>
		</g>
	</g>
</g>
</svg>
