<svg xmlns="http://www.w3.org/2000/svg" width="37.5" height="35.611" viewBox="0 0 37.5 35.611">
  <g id="air-conditioner_1_" data-name="air-conditioner (1)" transform="translate(0 -12.893)">
    <path id="Path_622" data-name="Path 622" d="M0,12.893v24.17H37.5V12.893H0ZM35.3,34.866H2.2V15.09H35.3Z" fill="#1cbe32"/>
    <path id="Path_623" data-name="Path 623" d="M71.986,72.893H61V88.274H71.986Zm-2.2,2.2v2.2H63.2v-2.2Zm0,4.395v2.2H63.2v-2.2ZM63.2,86.077v-2.2h6.592v2.2Z" transform="translate(-56.532 -55.605)" fill="#1cbe32"/>
    <path id="Path_624" data-name="Path 624" d="M311.986,72.893H301V88.274h10.986Zm-2.2,2.2v2.2H303.2v-2.2Zm0,4.395v2.2H303.2v-2.2ZM303.2,86.077v-2.2h6.592v2.2Z" transform="translate(-278.954 -55.605)" fill="#1cbe32"/>
    <path id="Path_625" data-name="Path 625" d="M241,132.893h2.2v6.592H241Z" transform="translate(-223.349 -111.211)" fill="#1cbe32"/>
    <path id="Path_626" data-name="Path 626" d="M325.565,377.931v-5.038h-2.2v5.038l-1.42-1.42-1.554,1.554,4.073,4.073,4.073-4.073-1.554-1.554Z" transform="translate(-296.928 -333.633)" fill="#1cbe32"/>
    <path id="Path_627" data-name="Path 627" d="M85.565,377.931v-5.038h-2.2v5.038l-1.42-1.42-1.554,1.554,4.073,4.073,4.073-4.073-1.554-1.554Z" transform="translate(-74.506 -333.633)" fill="#1cbe32"/>
  </g>
</svg>
