<?xml version="1.0" encoding="utf-8"?>
<!-- Generator: Adobe Illustrator 23.0.5, SVG Export Plug-In . SVG Version: 6.00 Build 0)  -->
<svg version="1.1" id="Layer_1" xmlns="http://www.w3.org/2000/svg" xmlns:xlink="http://www.w3.org/1999/xlink" x="0px" y="0px"
	 viewBox="0 0 651 585.3" style="enable-background:new 0 0 651 585.3;" xml:space="preserve">
<style type="text/css">
	.st0{fill:#4DB048;}
</style>
<path class="st0" d="M580,258.1h-97.1v-88.9h79.6c14.2,0,25.8-11.6,25.8-25.8V38.1c0-14.2-11.6-25.8-25.8-25.8H386.9
	c-14.2,0-25.8,11.6-25.8,25.8v44.4h-53.8V55.7c0-23.9-19.4-43.3-43.3-43.3H88.5c-23.9,0-43.3,19.4-43.3,43.3v491.5
	c0,14.2,11.6,25.8,25.8,25.8h210.6c14.2,0,25.8-11.6,25.8-25.8V423.8h36.2v123.4c0,14.2,11.6,25.8,25.8,25.8H580
	c14.2,0,25.8-11.6,25.8-25.8V283.9C605.8,269.7,594.2,258.1,580,258.1z M589.4,283.9v44.4h-73.1c1.1-2.9,1.8-6,1.8-9.3
	c0-14.2-11.6-25.8-25.8-25.8c-14.2,0-25.8,11.6-25.8,25.8c0,3.3,0.6,6.4,1.8,9.3h-20.4v-26.9c0-4.5-3.7-8.2-8.2-8.2h-52.7
	c-4.5,0-8.2,3.7-8.2,8.2v26.9H360v-44.4c0-5.2,4.2-9.3,9.3-9.3H580C585.2,274.6,589.4,278.7,589.4,283.9z M482.9,319
	c0-5.1,4.2-9.3,9.3-9.3c5.2,0,9.3,4.2,9.3,9.3c0,5.2-4.2,9.3-9.3,9.3C487.1,328.3,482.9,324.2,482.9,319z M395.1,328.3v-18.7h36.2
	v18.7H395.1z M562.5,152.8h-26.9V81.5h36.2v62C571.8,148.6,567.6,152.8,562.5,152.8z M571.8,38.1V65h-36.2V28.8h26.9
	C567.6,28.8,571.8,33,571.8,38.1z M377.6,38.1c0-5.1,4.2-9.3,9.3-9.3h132.2v124H386.9c-5.2,0-9.3-4.2-9.3-9.3V38.1z M61.6,379.9
	h18.1c0.3,0,0.6,0.3,0.6,0.6v61.4c0,0.3-0.3,0.6-0.6,0.6H61.6V379.9z M61.6,230.7h18.1c0.3,0,0.6,0.3,0.6,0.6v61.4
	c0,0.3-0.3,0.6-0.6,0.6H61.6V230.7z M291,547.2c0,5.1-4.2,9.3-9.3,9.3H71c-5.1,0-9.3-4.2-9.3-9.3v-88.3h18.1c9.4,0,17-7.6,17-17
	v-61.4c0-9.4-7.6-17-17-17H61.6v-18.7h184.9c4.5,0,8.2-3.7,8.2-8.2s-3.7-8.2-8.2-8.2H61.6v-18.7h18.1c9.4,0,17-7.6,17-17v-61.4
	c0-9.4-7.6-17-17-17H61.6V55.7c0-14.8,12.1-26.9,26.9-26.9h175.5c14.8,0,26.9,12.1,26.9,26.9v272.6h-9.3c-4.5,0-8.2,3.7-8.2,8.2
	c0,4.5,3.7,8.2,8.2,8.2h9.3L291,547.2L291,547.2z M307.4,407.3V99h53.8v44.4c0,14.2,11.6,25.8,25.8,25.8h79.6v88.9h-97.1
	c-14.2,0-25.8,11.6-25.8,25.8v123.4H307.4z M580,556.5H369.4c-5.2,0-9.3-4.2-9.3-9.3V344.8h229.3v202.4
	C589.4,552.3,585.2,556.5,580,556.5z"/>
</svg>
