<svg id="car_icon" data-name="car icon" xmlns="http://www.w3.org/2000/svg" width="53.213" height="20.904" viewBox="0 0 53.213 20.904">
  <path id="Path_134" data-name="Path 134" d="M366.973,603.1c2.916.43,3.833-.23,3.689-2.928a38.042,38.042,0,0,0-.933-6.184,2.3,2.3,0,0,0-1.507-1.341c-4.156-.942-7.642-3.192-11.279-5.264-4.291-2.443-9.094-1.989-13.784-1.3A27.074,27.074,0,0,0,330.6,591.4a8.913,8.913,0,0,1-3.051,1.231c-2.213.589-4.481.982-6.685,1.6a3.85,3.85,0,0,0-3.17,4.116c.028.958-.242,1.927-.227,2.888.025,1.353.58,2.25,2.173,2.029a15.682,15.682,0,0,1,1.992-.012c-.2-2.419.331-4.6,2.363-5.835a7.832,7.832,0,0,1,4.153-1.08c3.186.126,5.205,3,5,6.78h22.264c-.11-2.336.4-4.579,2.551-5.789a7.967,7.967,0,0,1,4.183-.973C365.266,596.562,367.252,599.481,366.973,603.1Zm-21.509-15.546c-.157,1.292-.359,2.385-.405,3.487-.043,1.022-.552,1.255-1.464,1.283-3.06.086-6.12.239-9.18.35a11.286,11.286,0,0,1-1.243-.089c-.028-.154-.052-.31-.08-.463A20.244,20.244,0,0,1,345.464,587.551Zm13.544,3.941c-.034.141-.071.282-.1.424H347.041c.193-1.479.381-2.922.586-4.509C352.017,587.511,355.924,588.37,359.008,591.492Z" transform="translate(-317.463 -585.532)" fill="#1cbe32"/>
  <path id="Path_135" data-name="Path 135" d="M448.534,625.028a4.391,4.391,0,1,0,.138,8.781,4.391,4.391,0,0,0-.138-8.781Z" transform="translate(-438.657 -612.905)" fill="#1cbe32"/>
  <path id="Path_136" data-name="Path 136" d="M342.788,629.417a4.369,4.369,0,1,0-4.367,4.38A4.356,4.356,0,0,0,342.788,629.417Z" transform="translate(-294.665 -612.893)" fill="#1cbe32"/>
</svg>
