<svg xmlns="http://www.w3.org/2000/svg" width="29.478" height="42" viewBox="0 0 29.478 42">
  <g id="car-wash" transform="translate(-12.42 -2)">
    <path id="Path_628" data-name="Path 628" d="M41.9,42.644a.6.6,0,0,0-1.2,0,1.3,1.3,0,0,1-1.2,1.3l-1.53-6.672A2.922,2.922,0,0,0,35.106,35H19.242a2.91,2.91,0,0,0-2.874,2.262L14.82,43.94a1.308,1.308,0,0,1-1.2-1.3.6.6,0,1,0-1.2,0,2.508,2.508,0,0,0,1.44,2.262,3.438,3.438,0,0,0-1,2.43V52.43a1.644,1.644,0,0,0,1.644,1.644h1.386v1.878A1.248,1.248,0,0,0,17.16,57.2H20.5a1.248,1.248,0,0,0,1.266-1.248V54.074H32.634v1.878A1.248,1.248,0,0,0,33.882,57.2h3.342a1.248,1.248,0,0,0,1.248-1.248V54.074H39.81a1.644,1.644,0,0,0,1.644-1.644V47.336a3.438,3.438,0,0,0-1-2.43,2.508,2.508,0,0,0,1.44-2.262Zm-8.526,5.964a2.37,2.37,0,1,1,.681,1.693A2.37,2.37,0,0,1,33.372,48.608Zm-15.8-11.07A1.722,1.722,0,0,1,19.242,36.2H35.106a1.728,1.728,0,0,1,1.662,1.338l1.482,6.33a2.616,2.616,0,0,0-.306,0H16.368a2.513,2.513,0,0,0-.3,0Zm-1.242,11.07A2.274,2.274,0,1,1,18.6,50.876a2.274,2.274,0,0,1-2.274-2.268Zm15,1.47a.924.924,0,0,1-.762.4h-7a.936.936,0,0,1-.876-1.254l.654-1.8a.936.936,0,0,1,.876-.6H29.91a.936.936,0,0,1,.876.6l.654,1.8a.936.936,0,0,1-.072.852Z" transform="translate(0 -13.2)" fill="#1cbe32"/>
    <path id="Path_629" data-name="Path 629" d="M29.89,10.214h8.052a.6.6,0,0,0,.6-.6A4.578,4.578,0,0,0,37,6.2V5.072A3.078,3.078,0,0,0,33.916,2,3.083,3.083,0,0,0,30.85,5.072V6.164a4.6,4.6,0,0,0-1.56,3.45A.6.6,0,0,0,29.89,10.214Z" transform="translate(-6.748 0)" fill="#1cbe32"/>
    <path id="Path_630" data-name="Path 630" d="M33.6,28.38a.6.6,0,0,0-.6.6v.6a.6.6,0,1,0,1.2,0v-.6A.6.6,0,0,0,33.6,28.38Z" transform="translate(-8.232 -10.552)" fill="#1cbe32"/>
    <path id="Path_631" data-name="Path 631" d="M27.6,30.22a.6.6,0,0,0,.6-.6v-.6a.6.6,0,0,0-1.2,0v.6A.6.6,0,0,0,27.6,30.22Z" transform="translate(-5.832 -10.568)" fill="#1cbe32"/>
    <path id="Path_632" data-name="Path 632" d="M34.2,19.6a.6.6,0,1,0-1.2,0v.6a.6.6,0,1,0,1.2,0Z" transform="translate(-8.232 -6.8)" fill="#1cbe32"/>
    <path id="Path_633" data-name="Path 633" d="M27.6,20.8a.6.6,0,0,0,.6-.6v-.6a.6.6,0,0,0-1.2,0v.6A.6.6,0,0,0,27.6,20.8Z" transform="translate(-5.832 -6.8)" fill="#1cbe32"/>
    <path id="Path_634" data-name="Path 634" d="M45.6,30.22a.6.6,0,0,0,.6-.6v-.6a.6.6,0,1,0-1.2,0v.6A.6.6,0,0,0,45.6,30.22Z" transform="translate(-13.032 -10.568)" fill="#1cbe32"/>
    <path id="Path_635" data-name="Path 635" d="M40.2,19.6a.6.6,0,0,0-1.2,0v.6a.6.6,0,1,0,1.2,0Z" transform="translate(-10.632 -6.8)" fill="#1cbe32"/>
    <path id="Path_636" data-name="Path 636" d="M34.2,24.29a.6.6,0,1,0-1.2,0v.6a.6.6,0,0,0,1.2,0Z" transform="translate(-8.232 -8.676)" fill="#1cbe32"/>
    <path id="Path_637" data-name="Path 637" d="M39.6,28.38a.6.6,0,0,0-.6.6v.6a.6.6,0,1,0,1.2,0v-.6A.6.6,0,0,0,39.6,28.38Z" transform="translate(-10.632 -10.552)" fill="#1cbe32"/>
    <path id="Path_638" data-name="Path 638" d="M27.6,25.53a.6.6,0,0,0,.6-.6v-.6a.6.6,0,1,0-1.2,0v.6A.6.6,0,0,0,27.6,25.53Z" transform="translate(-5.832 -8.692)" fill="#1cbe32"/>
    <path id="Path_639" data-name="Path 639" d="M40.2,24.29a.6.6,0,1,0-1.2,0v.6a.6.6,0,0,0,1.2,0Z" transform="translate(-10.632 -8.676)" fill="#1cbe32"/>
    <path id="Path_640" data-name="Path 640" d="M45.6,20.8a.6.6,0,0,0,.6-.6v-.6a.6.6,0,1,0-1.2,0v.6A.6.6,0,0,0,45.6,20.8Z" transform="translate(-13.032 -6.8)" fill="#1cbe32"/>
    <path id="Path_641" data-name="Path 641" d="M45.6,25.53a.6.6,0,0,0,.6-.6v-.6a.6.6,0,1,0-1.2,0v.6A.6.6,0,0,0,45.6,25.53Z" transform="translate(-13.032 -8.692)" fill="#1cbe32"/>
  </g>
</svg>
