<?xml version="1.0" encoding="utf-8"?>
<!-- Generator: Adobe Illustrator 23.0.5, SVG Export Plug-In . SVG Version: 6.00 Build 0)  -->
<svg version="1.1" id="Layer_1" xmlns="http://www.w3.org/2000/svg" xmlns:xlink="http://www.w3.org/1999/xlink" x="0px" y="0px"
	 viewBox="0 0 651 585.3" style="enable-background:new 0 0 651 585.3;" xml:space="preserve">
<style type="text/css">
	.st0{fill:#4DB048;}
</style>
<g>
	<path class="st0" d="M45.3,379.7c-35.7,5.3-46.9-2.8-45.1-35.8c1.4-25.4,5.9-50.8,11.4-75.7c1.5-6.7,11.2-14.8,18.4-16.4
		c50.8-11.5,93.5-39,138-64.4c52.5-29.9,111.3-24.3,168.6-15.9c56.7,8.3,107.7,30.4,153.7,65.1c10.4,7.8,24.4,11.6,37.3,15.1
		c27.1,7.2,54.8,12,81.8,19.6c24.6,6.9,39.6,22.5,38.8,50.4c-0.3,11.7,3,23.6,2.8,35.3c-0.3,16.6-7.1,27.5-26.6,24.8
		c-7.3-1-14.8-0.2-24.4-0.2c2.4-29.6-4.1-56.3-28.9-71.4c-14.5-8.8-33.9-13.9-50.8-13.2c-39,1.5-63.7,36.6-61.1,82.9
		c-90.3,0-180.5,0-272.4,0c1.4-28.6-4.8-56-31.2-70.8c-14.8-8.3-34.3-13-51.2-11.9C66.2,299.7,41.9,335.4,45.3,379.7z M308.4,189.5
		c1.9,15.8,4.4,29.2,5,42.7c0.5,12.5,6.8,15.4,17.9,15.7c37.4,1.1,74.9,2.9,112.3,4.3c5.1,0.2,10.1-0.7,15.2-1.1
		c0.3-1.9,0.6-3.8,1-5.7C416.1,211.8,367.7,190.4,308.4,189.5z M142.7,237.7c0.4,1.7,0.9,3.5,1.3,5.2c47.7,0,95.4,0,145.1,0
		c-2.4-18.1-4.7-35.7-7.2-55.2C228.3,189,180.5,199.5,142.7,237.7z"/>
	<path class="st0" d="M530.2,313.1c29.4,0.5,53.8,25.7,53,54.6c-0.8,29.9-25.1,53.2-54.7,52.8c-29.9-0.5-53-24.3-52.6-54.4
		C476.2,336.2,500.5,312.5,530.2,313.1z"/>
	<path class="st0" d="M62.3,367c0-30,23.5-53.8,53.3-53.9c29.6-0.1,53.7,24.1,53.6,53.8c-0.1,30-23.7,53.7-53.5,53.7
		C85.8,420.6,62.3,397,62.3,367z"/>
</g>
</svg>
