<svg xmlns="http://www.w3.org/2000/svg" width="63.168" height="34.755" viewBox="0 0 63.168 34.755"><g transform="translate(-7.26 -13.655)"><path d="M40.8,51.106c0,.455.007.8,0,1.145a2.306,2.306,0,0,0,2.4,2.391c2.478-.054,4.957-.033,7.429-.007a2.222,2.222,0,0,0,2.224-2.485,3.757,3.757,0,0,0-2.666-3.416,7.746,7.746,0,0,0-2.1-.221.552.552,0,0,1-.61-.415c-.174-.509-.415-1-.63-1.494-.134-.308-.047-.462.288-.5a1.4,1.4,0,0,1,.167,0H62.464a2.2,2.2,0,0,1,.228.013c-.228.389-.482.77-.69,1.172a2.535,2.535,0,0,0,1.554,3.329c.429.147.851.322,1.266.509a.554.554,0,0,1,.228.3c.255.744.476,1.507.744,2.244a2.46,2.46,0,0,0,2.586,1.474,2.635,2.635,0,0,0,2.184-1.788c.127-.422.281-.831.449-1.32.4.308.757.583,1.105.864,2.043,1.641,4.079,3.3,6.129,4.93a.729.729,0,0,1,.322.857c-.121.342-.422.429-.777.429q-22.466-.01-44.926,0a.722.722,0,0,1-.784-.482c-.134-.368.094-.583.355-.8q4.049-3.255,8.092-6.518C40.581,51.273,40.648,51.226,40.8,51.106Z" transform="translate(-8.182 -10.714)" fill="#1cbe32"/><path d="M83.986,42.39a2.149,2.149,0,0,1,.342.449c.281.811.529,1.628.817,2.438a.866.866,0,0,0,.389.442c.656.322,1.34.589,2,.9.127.06.322.221.308.3a.562.562,0,0,1-.3.375c-.643.295-1.306.529-1.943.837a1.061,1.061,0,0,0-.482.543c-.315.857-.576,1.728-.884,2.592-.054.154-.234.261-.355.389-.107-.134-.268-.255-.315-.415-.268-.831-.509-1.668-.77-2.5a.874.874,0,0,0-.6-.67c-.63-.194-1.239-.476-1.849-.717a.84.84,0,0,1-.255-.134c-.087-.08-.228-.194-.214-.275a.473.473,0,0,1,.241-.3c.623-.268,1.239-.543,1.882-.764a1.222,1.222,0,0,0,.864-.9c.214-.744.509-1.46.784-2.184A2.593,2.593,0,0,1,83.986,42.39Z" transform="translate(-23.976 -9.487)" fill="#1cbe32"/><path d="M94.593,33.289a1.231,1.231,0,0,1-.281.248,4.744,4.744,0,0,1-.991.422A1.468,1.468,0,0,0,92.174,35.2a14.456,14.456,0,0,1-.455,1.38,1.794,1.794,0,0,1-.268.382,1.514,1.514,0,0,1-.288-.409c-.214-.643-.389-1.3-.616-1.936a.8.8,0,0,0-.389-.409c-.5-.234-1.025-.422-1.527-.643-.107-.047-.248-.194-.241-.275a.456.456,0,0,1,.261-.275c.469-.2.965-.348,1.42-.576a1.274,1.274,0,0,0,.543-.569c.234-.529.382-1.1.589-1.634.054-.134.2-.234.308-.355a1.59,1.59,0,0,1,.288.362c.214.556.375,1.132.6,1.681a1.018,1.018,0,0,0,.435.482c.435.228.911.389,1.36.6A2.407,2.407,0,0,1,94.593,33.289Z" transform="translate(-26.786 -5.357)" fill="#1cbe32"/><circle cx="3.336" cy="3.336" r="3.336" transform="translate(10.877 37.109)" fill="#1cbe32"/><path d="M42.674,41.37a1.928,1.928,0,0,0-1.9-1.594c-.75-.013-1.5.007-2.257-.013a.575.575,0,0,1-.429-.208c-.516-1.145-1.011-2.3-1.5-3.47q-1.216-2.864-2.425-5.727c-.415-.978-.824-1.956-1.259-2.994.208,0,.355.007.5,0,.5-.02.737-.3.75-.851.013-.65-.174-.918-.717-.951-.348-.02-.7.013-1.045-.02a.5.5,0,0,1-.355-.248c-.442-1-.864-2.01-1.293-3.014-.991-2.324-1.969-4.655-2.974-6.98a2.512,2.512,0,0,0-1.788-1.48,7.168,7.168,0,0,0-3.309.074c-1.735.362-3.45.837-5.171,1.259-1.346.328-2.7.636-4.046.958-.335.08-.663.181-1.018.275l-1,.288h0a6.769,6.769,0,0,0-3.959,4.662A6.457,6.457,0,0,0,9.069,27.5c.744.831,1.634,1.534,2.438,2.311a.893.893,0,0,1,.241.563c.02,1.768.013,3.537.013,5.305,0,.147.013.288.02.455a4.787,4.787,0,0,1,5.66.757l.174.174.248.268a4.727,4.727,0,0,1,.69,5.071c1.4,0,2.78-.054,4.153.013a2.339,2.339,0,0,0,2.385-2.365c-.054-3.088-.027-6.176-.013-9.271a6.436,6.436,0,0,0-1.032-3.624,6.219,6.219,0,0,0-4.836-3.048c-1.755-.134-3.53-.107-5.3-.087a2.032,2.032,0,0,0-1.983,1.387,7.365,7.365,0,0,0-.234,1.433,4.6,4.6,0,0,1-2.143-4.367,4.424,4.424,0,0,1,3.376-3.919l.362-.08h.047c.121-.027.234-.054.355-.087H13.7c1.567-.375,3.128-.75,4.7-1.119s3.108-.73,4.655-1.1a2.425,2.425,0,0,1,1.8.322,4.858,4.858,0,0,1,1.943,2.418c.857,1.889,1.655,3.811,2.478,5.714.121.281.214.576.342.9-.234.013-.382.013-.536.027-.529.054-.737.328-.717.965.02.529.288.831.77.837.335.007.67-.02,1,.013a.555.555,0,0,1,.4.248c.522,1.172,1.018,2.358,1.527,3.537q1.608,3.748,3.209,7.5c.147.348.281.7.435,1.092-.188.013-.295.02-.409.027-.563.013-.656.1-.663.65,0,.348.013.7,0,1.045s.1.469.455.462c.744-.007,6.578,0,7.154-.007C42.674,41.926,42.761,41.812,42.674,41.37Z" fill="#1cbe32"/></g></svg>