<?xml version="1.0" encoding="utf-8"?>
<!-- Generator: Adobe Illustrator 23.0.5, SVG Export Plug-In . SVG Version: 6.00 Build 0)  -->
<svg version="1.1" id="Layer_1" xmlns="http://www.w3.org/2000/svg" xmlns:xlink="http://www.w3.org/1999/xlink" x="0px" y="0px"
	 viewBox="0 0 651 585.3" style="enable-background:new 0 0 651 585.3;" xml:space="preserve">
<style type="text/css">
	.st0{fill:#4DB048;}
</style>
<g>
	<path class="st0" d="M479.3,291.2c-2.8,1.8-5.6,3.6-8.5,5.4c-9.3,5.8-18.7,11.4-27.8,17.6c-4,2.7-7.3,3.3-11.3,0.5
		c-1.4-1-3.2-1.6-5.4-2.6c-0.1,1.6-0.5,2.9-0.1,3.8c2.4,6.3-0.6,9.8-5.9,12.4c-1.2,0.5-2.2,1.3-3.3,2c-7.9,5-15.3,13.3-26.2,2.8
		c5.3,11.9-2.2,15.9-9.7,19.8c-0.5,0.2-0.9,0.5-1.4,0.9c-6.9,5-13.9,10.1-22.5,1c-0.1,2.6-0.6,3.9-0.2,4.9c2.4,6.3-0.7,9.8-6.1,12.3
		c-1.8,0.8-3.4,2.1-5.1,3.2c-7.3,4.5-14.3,11.6-23,1.7c-0.5,1.5-0.9,2-0.8,2.4c3.2,8.6-1.3,13.1-8.5,16.2c-0.2,0.1-0.3,0.2-0.5,0.3
		c-4.2,2.6-8.1,6.6-12.6,7.5c-4,0.8-8.6-1.8-13.8-3.2c5.6,10.5-2.2,14.2-9.3,18.1c-0.2,0.1-0.3,0.2-0.5,0.3
		c-7.4,4.8-14.5,11.7-23,2.3c-0.8,0.8-1.3,1.2-1.2,1.3c2.7,9-1.5,14.3-9.5,17.5c-0.3,0.1-0.6,0.4-0.9,0.6
		c-7.4,5.6-14.8,11.4-23.7,2.1c-0.4,1.2-0.7,1.6-0.6,1.8c3.6,9.1-1.4,13.7-8.8,17.1c-0.8,0.4-1.6,0.9-2.3,1.4
		c-7.1,5-14.1,10.6-22.1,2c-0.8,0.9-1.2,1.2-1.2,1.4c2.6,8.2-0.6,13.5-8.4,16.5c-0.5,0.2-0.9,0.5-1.4,0.8
		c-7.6,4.9-14.8,12.7-24.3,2.5c-0.3,1.7-0.6,2.2-0.5,2.6c3.2,8.7-2.1,12.5-8.8,16.2c-9.1,5.2-8.9,5.5-16.3-1.8
		c-14.2-14.2-28.5-28.3-42.3-42c77.6-77.7,154.9-154.9,233.1-233.2c10.5,10.9,21.6,22.4,32.8,33.9c8.4,8.6,16.9,17.2,25.7,25.4
		c1.8,1.7,5,3,7.5,3c31,0.2,62.1,0.1,93.1,0.2c1.7,0,3.5,0,5.2,0C479,290.4,479.1,290.8,479.3,291.2z"/>
	<path class="st0" d="M444.8,273.5c-19.2,0-38.3,0.1-57.5-0.1c-2.6,0-5.7-1.3-7.5-3c-16.8-16.4-33.5-33.1-50.1-49.7
		c-6.5-6.5-6.6-12.1-0.3-18.5c31.1-31.4,62.1-62.8,93.2-94.1c5.2-5.2,11.3-5.9,16.8-2.1c6.1,4.3,7.9,10.7,5,17.3
		c-3.2,7.2-2.5,9.9,5.1,12.3c9.3,3,18.9,5.2,28.5,7.5c28.6,7,55,18.4,76,39.7c5.7,5.8,10.3,12.7,14.9,19.4c2.9,4.1,1.9,7.9-1.9,11.6
		c-19.1,18.8-38,37.9-57.1,56.7c-1.7,1.7-4.7,2.8-7.1,2.8C483.5,273.6,464.2,273.5,444.8,273.5C444.8,273.5,444.8,273.5,444.8,273.5
		z M379.2,195.2c36.7,19.3,73.1,38.4,110,57.8c9.2-9.6,18.2-19,27.6-28.8c-26.5-36.3-62.2-55.7-107.9-55.9c-1.3,0-3.1,0.3-4,1.1
		C396.3,177.9,387.9,186.4,379.2,195.2z"/>
	<path class="st0" d="M145,208.5c4.7,4.2,8.1,7.2,12.2,10.9c-13.9,10.8-27.2,21.1-40.5,31.5c-12.2-12.4-24-24.5-36.3-37.1
		c9.7-12.6,20-25.8,31-40.1c3.2,4.3,6.1,8.2,9.5,12.7c8.1-8.2,15-14.7,21.3-21.8c1.8-2,1.9-5.8,2.3-8.8c0.6-4.9,2.3-8.8,5.9-12.3
		c14.8-14.4,29.8-28.6,43.7-43.8c14.8-16.1,33.3-22.3,54.2-23.3c29.2-1.4,57.3,4.3,85.1,12.5c0.6,0.2,1.2,0.7,1.9,1
		c-4.5,6.3-9.4,10-18,9.6c-18.5-0.9-36.9,1.6-53.9,9.7c-5.7,2.7-11.2,6.3-15.8,10.6c-12,11.2-12.8,26.3-1.8,38.5
		c9,10,18.9,19.3,28.4,28.9c8.7,8.8,17.5,17.6,25.8,25.9c-9.3,9.4-18.6,18.8-28.8,29.1c-6.9-7.2-14.3-15-21.8-22.6
		c-6.2-6.4-12.6-12.7-18.9-19c-21.9-21.8-54-21.8-76-0.2C151.8,202.9,148.8,205.2,145,208.5z"/>
	<path class="st0" d="M382.7,372.5c19.9-12.5,39.4-24.7,59-36.7c1.2-0.7,4.4,0.5,5.8,1.8c19.7,17.9,39.3,36,58.9,54
		c17.1,15.7,34.2,31.3,51.2,47.1c13.4,12.4,13.6,24.1,0.6,37c-8.8,8.8-17.5,17.6-26.4,26.3c-9.9,9.6-22.7,9.6-31.9-0.5
		c-38.6-42.1-77-84.5-115.4-126.7C384,374.3,383.6,373.7,382.7,372.5z"/>
</g>
</svg>
