<?xml version="1.0" encoding="utf-8"?>
<!-- Generator: Adobe Illustrator 23.0.5, SVG Export Plug-In . SVG Version: 6.00 Build 0)  -->
<svg version="1.1" id="Layer_1" xmlns="http://www.w3.org/2000/svg" xmlns:xlink="http://www.w3.org/1999/xlink" x="0px" y="0px"
	 viewBox="0 0 651 585.3" style="enable-background:new 0 0 651 585.3;" xml:space="preserve">
<style type="text/css">
	.st0{fill:#4DB048;}
</style>
<g>
	<path class="st0" d="M207.9,368.6c-41.1-57.1-11.2-122.2,33.4-154.2c52,55.4,104.1,110.9,156.6,166.8c-21.1,21.8-45,37.6-74.6,43.5
		c-30,5.9-57.5,0.1-81.5-20.2c-18.3,17.2-36.2,34-54.8,51.6c4.7,3.6,8.8,7,13.1,10.1c122.1,87.9,295.3,24.6,332.1-121.3
		c30.9-122.7-52-246.4-176.8-263.8c-114-15.9-219,59.2-240.5,172.2c-1.3,6.9-1.8,13.9-3,20.8c-0.3,1.8-1.8,4.4-3.3,4.8
		c-12.7,3-25.5,5.6-38.4,8.3c-2.9-86,56.5-202.9,182.1-239.7C383,9,518.8,77.4,565.5,205.9c45,123.8-10.8,263.1-134.4,319.5
		c-120.5,55-248.9,5.3-308.2-76.9C151.1,422,179.4,395.4,207.9,368.6z"/>
	<path class="st0" d="M304.7,249.4c-8.9-9.5-17.2-18.3-26-27.6c3.8-3.6,7.4-7,10.9-10.4c16-15,31.8-30.1,47.9-45
		c9.4-8.8,21.2-9,28.9-0.8c7.6,8.2,6.5,20-2.8,28.8c-17.8,16.7-35.5,33.4-53.3,50.1C308.6,246,306.9,247.5,304.7,249.4z"/>
	<path class="st0" d="M390.5,340.8c-8.6-9.2-17-18.2-25.9-27.6c8.6-8.1,16.7-15.9,24.9-23.6c11.2-10.5,22.4-21,33.6-31.5
		c10-9.3,21.5-9.6,29.3-0.9c7.7,8.6,6.5,19.7-3.1,28.7c-18.1,17-36.2,34-54.3,51.1C393.7,338.2,392.3,339.3,390.5,340.8z"/>
</g>
</svg>
