<svg xmlns="http://www.w3.org/2000/svg" width="54.829" height="53.813" viewBox="0 0 54.829 53.813"><g transform="translate(-23.026 -6.132)"><path d="M60.477,60.53a1.544,1.544,0,0,0,.053,3.087,1.526,1.526,0,0,0,1.526-1.57A1.505,1.505,0,0,0,60.477,60.53Z" transform="translate(-4.422 -6.695)" fill="none"/><path d="M44.486,8.555a3.821,3.821,0,0,0-4.876,2.35c2.394.78,4.779,1.552,7.243,2.35C47.546,10.739,46.722,9.187,44.486,8.555Z" transform="translate(-2.041 -0.277)" fill="none"/><path d="M82.377,58.765a1,1,0,0,0-.938.3c-.789,1.684-2.324,2.14-3.92,2.447-.894.175-1.833.114-2.736.272-.333.061-.605.465-.9.71a11.443,11.443,0,0,0,.93.8c.105.079.316.009.57.009,1.947-.158,4.008-.3,5.7-1.587a7.483,7.483,0,0,0,1.64-2.008C82.842,59.519,82.614,58.906,82.377,58.765Z" transform="translate(-6.259 -6.473)" fill="none"/><path d="M73.1,51.294c-.377,2.6-1.166,3.508-3.823,3.92a13.123,13.123,0,0,1-4.016.009c-2.982-.474-3.788-1.57-3.815-4.578a2.66,2.66,0,0,0-.421-1.447c-2.587-3.639-5.227-7.252-7.849-10.874-.263-.36-.517-.719-.816-1.14.491-.2.851-.351,1.21-.5.956-.4,1.307-.947.991-1.6-.395-.833-1.044-.71-1.763-.456a1.164,1.164,0,0,1-.842-.061A21.922,21.922,0,0,0,50,33.352c-1.631-.684-3.324-1.236-4.972-1.894a1.95,1.95,0,0,1-.912-.789c-1.307-2.315-2.569-4.657-3.85-6.989a4.613,4.613,0,0,0-4.8-2.6,5.3,5.3,0,0,0-4.9,3.674q-1.578,4.92-2.982,9.9a7.716,7.716,0,0,0-.237,3c.395,2.894.982,5.761,1.412,8.647a2.482,2.482,0,0,1-.368,1.6c-1.552,2.359-3.21,4.657-4.771,7.007a2.737,2.737,0,0,0,.307,3.753,2.564,2.564,0,0,0,3.771-.447c2.271-2.464,4.455-5.007,6.691-7.507a4.756,4.756,0,0,0,1.175-3.359c-.009-1.771.123-3.552.026-5.323-.193-3.587,1.64-6.63,2.517-9.979a13.008,13.008,0,0,1,1.333,2.078,3.74,3.74,0,0,0,2.9,2.1c1.412.237,2.806.614,4.192.921-.123,1.754.447,2.148,2.034,1.526a8.258,8.258,0,0,0,.912-.368c.57-.307.921-.175,1.307.36,2.21,3.1,4.464,6.182,6.691,9.269.842,1.166,1.675,2.333,2.412,3.359-1.017.859-1.947,1.657-2.9,2.429a1.052,1.052,0,0,1-.631.1A3.4,3.4,0,0,0,52.968,55.9a3.311,3.311,0,0,0,.921,3.85,3.351,3.351,0,0,0,3.946.316,1.411,1.411,0,0,1,.965-.088,47.573,47.573,0,0,0,5.174,1.5,20.031,20.031,0,0,0,10.76-1.026c2.438-.965,3.113-2.026,3.122-4.525A4.727,4.727,0,0,0,73.1,51.294ZM36.131,26.977l-2.376,9.392a1.529,1.529,0,0,1-2.964-.754l2.376-9.392a1.528,1.528,0,0,1,1.859-1.1A1.546,1.546,0,0,1,36.131,26.977Zm19.976,31.78a1.544,1.544,0,1,1,1.526-1.57A1.526,1.526,0,0,1,56.107,58.757ZM76.47,55.074a7.652,7.652,0,0,1-1.64,2.008c-1.692,1.289-3.762,1.429-5.7,1.587-.254,0-.465.061-.57-.009-.333-.237-.623-.535-.93-.8.3-.246.57-.649.9-.71.894-.167,1.833-.105,2.736-.272,1.6-.307,3.131-.763,3.92-2.447a.983.983,0,0,1,.938-.3A1.034,1.034,0,0,1,76.47,55.074Z" transform="translate(0 -1.835)" fill="#1cbe32"/><path d="M42.516,19.144c2.587-.114,4.236-1.561,5.174-4.086.9.289,1.736.552,2.569.833.552.184,1.079.219,1.289-.447.193-.614-.219-.894-.745-1.061a12.975,12.975,0,0,0-1.5-.482c-.842-.149-.991-.552-.851-1.368a4.825,4.825,0,0,0-2.043-5.165,1.56,1.56,0,0,1-.491-.465,1.515,1.515,0,0,0-1.859-.71,7.448,7.448,0,0,1-1.158.14,5.99,5.99,0,0,0-4.972,2.7c-.868,1.158-.78,2.455-.991,3.727A5.414,5.414,0,0,0,42.516,19.144ZM44.147,8.279c2.236.631,3.06,2.184,2.359,4.7-2.455-.8-4.849-1.578-7.243-2.35A3.823,3.823,0,0,1,44.147,8.279Z" transform="translate(-1.702 0)" fill="#1cbe32"/><path d="M44.427,50.187c-1.447-1.982-2.973-3.911-4.63-6.077-.035.456-.061.614-.061.772-.193,5.305.482,10.558.965,15.82a2.356,2.356,0,0,0,2.543,2.324c1.552-.088,2.306-.921,2.227-2.622q-.2-4.328-.509-8.655A3.2,3.2,0,0,0,44.427,50.187Z" transform="translate(-2.052 -4.674)" fill="#1cbe32"/><path d="M76.581,53.4l-2.832.447a.6.6,0,0,1-.693-.474l-.035-.184a.579.579,0,0,1,.491-.658l3.06-.482V51.08c0-.745-1.508-1.35-3.376-1.35s-3.376.605-3.376,1.35v4.911c0,.745,1.508,1.35,3.376,1.35s3.376-.605,3.376-1.35C76.581,55.974,76.581,53.4,76.581,53.4Z" transform="translate(-5.759 -5.366)" fill="#1cbe32"/></g></svg>