<svg xmlns="http://www.w3.org/2000/svg" width="53.929" height="52.553" viewBox="0 0 53.929 52.553"><g transform="translate(-26.27 -16.02)"><path d="M38.542,16.02C34.072,23,34.072,23,26.84,27.744a22.576,22.576,0,0,1,11.614,11.68,23.113,23.113,0,0,1,11.79-11.79A22.539,22.539,0,0,1,38.542,16.02ZM38.4,32.389l-4.778-4.778c1.431-1.42,3.347-3.313,4.833-4.8,1.42,1.409,3.313,3.313,4.778,4.778C41.778,29.032,39.852,30.947,38.4,32.389Z" transform="translate(0.057)" fill="#1cbe32"/><g transform="translate(42.672 38.341)"><g transform="translate(0.947)"><path d="M47.776,60.329a4.705,4.705,0,0,0-.044-5.691c-1.453-1.926-3.446-2.268-5.7-1.563v-6.8a1.906,1.906,0,0,1,2.059-2.07c.33,0,.672.022,1-.011a2.431,2.431,0,0,1,1.475.374A12.143,12.143,0,0,1,51.013,48.4,13.464,13.464,0,0,1,52.994,53.4a25.465,25.465,0,0,1,.451,5.009,2.017,2.017,0,0,1-1.893,1.937c-1.222.022-2.444,0-3.677,0A.409.409,0,0,1,47.776,60.329Z" transform="translate(-42.03 -35.502)" fill="#1cbe32"/><path d="M65.535,61.124H56.046a10.883,10.883,0,0,1,.011-1.2.869.869,0,0,1,.782-.793l2.565-.5c.11-.022.209-.044.341-.077-.154-.958-.308-1.893-.462-2.84-.418-2.565-.826-5.119-1.255-7.684a11.276,11.276,0,0,0-.583-2.62,6.848,6.848,0,0,0-2.8-3.258c-2.092-1.255-4.194-2.488-6.3-3.721a1.293,1.293,0,0,0-1.717.473,1.11,1.11,0,0,0,.462,1.508q3.005,1.8,6,3.622a2.99,2.99,0,0,1,1.266,3.369,1.268,1.268,0,0,1-.154.352c-.352.528-.716,1.046-1.057,1.563-.352-.539-.683-1.057-1.013-1.574a.308.308,0,0,1,0-.242,3.016,3.016,0,0,1,.253-.4.967.967,0,0,0-.319-1.508c-1.409-.859-2.829-1.706-4.238-2.554-.572-.341-1.145-.694-1.717-1.035A2.9,2.9,0,0,1,44.631,39.2a2.867,2.867,0,0,1,1.948-2.664,3.13,3.13,0,0,1,2.763.187c2.059,1.167,4.1,2.367,6.132,3.556a8.282,8.282,0,0,1,4.183,5.779c.319,1.651.539,3.324.8,5,.374,2.367.749,4.745,1.123,7.111.022.165.088.22.264.253.947.187,1.882.4,2.829.594a.948.948,0,0,1,.848,1.057C65.535,60.43,65.535,60.772,65.535,61.124Z" transform="translate(-41.768 -36.297)" fill="#1cbe32"/></g><path d="M44.021,53.69a2.851,2.851,0,1,1-2.851,2.851A2.852,2.852,0,0,1,44.021,53.69Z" transform="translate(-41.17 -34.543)" fill="#1cbe32"/></g><path d="M77.081,35.808,51.663,16.51a1.705,1.705,0,0,0-.9-.33v3.787L74.428,37.932V39.1H69.859a1.649,1.649,0,0,0-1.651,1.651v24.5H50.76v3.3h19.1a1.649,1.649,0,0,0,1.651-1.651V42.4h4.568A1.649,1.649,0,0,0,77.73,40.75V37.129A1.632,1.632,0,0,0,77.081,35.808Z" transform="translate(2.469 0.016)" fill="#1cbe32"/><path d="M26.919,34.091a1.658,1.658,0,0,0-.649,1.31v3.622a1.649,1.649,0,0,0,1.651,1.651H32.49v24.5a1.649,1.649,0,0,0,1.651,1.651h19.1v-3.3H35.781V39.034a1.649,1.649,0,0,0-1.651-1.651H29.561V36.227l.088-.066a1.65,1.65,0,0,0,.319-2.312h0a1.648,1.648,0,0,0-2.312-.308Z" transform="translate(0 1.732)" fill="#1cbe32"/><path d="M50.415,16.466l-5.669,3.886a1.655,1.655,0,1,0,1.871,2.73L51.3,19.867l.143.11V16.19A1.573,1.573,0,0,0,50.415,16.466Z" transform="translate(1.79 0.017)" fill="#1cbe32"/></g></svg>