<svg xmlns="http://www.w3.org/2000/svg" width="49.934" height="49.92" viewBox="0 0 49.934 49.92"><g transform="translate(-18.356 -7.71)"><path d="M20.026,37.782c-1.667-.119-1.667-.119-1.667-1.712,0-.759-.007-1.526,0-2.285.007-.722.3-1.012,1-1.02.484-.007.96,0,1.488,0,0-.67.007-1.287-.007-1.913a.831.831,0,0,0-.179-.417,2.61,2.61,0,0,1,1.853-4.361V24.469h1.645v1.6c.179.03.313.045.439.074a2.608,2.608,0,0,1,1.533,4.19,1.462,1.462,0,0,0-.275.744c-.045.536-.015,1.072-.015,1.652h16.6a1.872,1.872,0,0,0,.037-.231c0-2.672.015-5.336,0-8.007a1.649,1.649,0,0,0-2.262-1.585,1.6,1.6,0,0,0-1.049,1.533c-.015.536,0,1.072,0,1.637H37.574a13.479,13.479,0,0,1,.022-2.262,3.261,3.261,0,0,1,3.542-2.679,3.314,3.314,0,0,1,3.014,3.282c.022,2.582.007,5.165.007,7.747v.58h4.16v-7.2c0-.841.365-1.213,1.191-1.057a19.761,19.761,0,0,1,2.128.64c.29-.618.573-.8,1.369-.625.662.156,1.3.424,1.957.647.26-.618.536-.819,1.28-.655.685.149,1.34.417,2.009.633.141-.149.32-.461.58-.573a1.508,1.508,0,0,1,.908-.03c.625.171,1.235.417,1.86.633.32-.647.58-.789,1.384-.662a4.177,4.177,0,0,1,3.632,4.153c.007.469,0,.938,0,1.407a4.639,4.639,0,0,1-.8,2.731c.513,0,.982-.007,1.459,0,.707.007,1,.305,1,1.02.007.938,0,1.868,0,2.806,0,.908-.253,1.161-1.176,1.161h-.484V59.862c0,.953-.246,1.2-1.2,1.2H21.246c-.953,0-1.2-.246-1.2-1.2V38.445A6.352,6.352,0,0,1,20.026,37.782Zm44.889.015H21.73V59.356H64.915ZM20.048,36.056H66.575v-1.6H20.048Zm4.13-3.312c0-.409.015-.759,0-1.1a3.257,3.257,0,0,1,.7-2.471.888.888,0,0,0-.707-1.4,8.342,8.342,0,0,0-1.555.015,1.366,1.366,0,0,0-.826.484.817.817,0,0,0,.127,1.049,2.334,2.334,0,0,1,.6,1.712c-.015.566,0,1.131,0,1.719h1.31A1.411,1.411,0,0,0,24.178,32.744Zm25.816-.2a2.308,2.308,0,0,0,1.622-2.136c.03-.655.03-1.317,0-1.972A2.246,2.246,0,0,0,50,26.344C49.994,28.413,49.994,30.475,49.994,32.543Zm3.319.007a2.286,2.286,0,0,0,1.622-2.039,16.925,16.925,0,0,0,0-2.128,2.221,2.221,0,0,0-1.622-2.039Zm3.334-6.3v6.288a2.3,2.3,0,0,0,1.615-2.084,16.7,16.7,0,0,0,0-2.024A2.5,2.5,0,0,0,56.647,26.255Zm3.327,6.363a2.488,2.488,0,0,0,1.615-2.188,15.852,15.852,0,0,0,0-1.972,2.283,2.283,0,0,0-1.622-2.121C59.974,28.406,59.974,30.467,59.974,32.618ZM63.3,26.337v6.2a2.276,2.276,0,0,0,1.622-2.113c.03-.655.03-1.317,0-1.972A2.289,2.289,0,0,0,63.3,26.337Z" transform="translate(0 -3.431)" fill="#1cbe32"/><path d="M43.26,16.03h-23.7c-.953,0-1.2-.246-1.2-1.2V8.8c0-.811.275-1.094,1.094-1.094H67.171c.811,0,1.094.275,1.094,1.094v6.08c0,.886-.26,1.146-1.146,1.146Zm-.811-1.674V9.407H20.072v4.949Zm24.119-.015V9.414H44.183v4.927Z" transform="translate(-0.001)" fill="#1cbe32"/><path d="M47.027,45.71H59.968c.953,0,1.2.238,1.2,1.2v15.9c0,.953-.246,1.2-1.2,1.2H34.13c-1.027,0-1.25-.223-1.25-1.25V46.908c0-.96.238-1.2,1.2-1.2ZM34.584,47.4V62.305h11.58V47.4Zm13.3,14.906h11.58V47.4H47.883Z" transform="translate(-3.716 -9.721)" fill="#1cbe32"/><path d="M46.33,13.82v-1.6h1.6v1.6Z" transform="translate(-7.156 -1.154)" fill="#1cbe32"/><path d="M55.27,13.813V12.22h1.615v1.593Z" transform="translate(-9.443 -1.154)" fill="#1cbe32"/><path d="M47.94,59.09h-1.6V55.83h1.6Z" transform="translate(-7.159 -12.31)" fill="#1cbe32"/><path d="M55.29,55.8h1.6v3.26h-1.6Z" transform="translate(-9.448 -12.302)" fill="#1cbe32"/></g></svg>