<svg xmlns="http://www.w3.org/2000/svg" width="203.69" height="47.57" viewBox="0 0 203.69 47.57">
  <g id="Group_348" data-name="Group 348" transform="translate(-294 -22.215)">
    <g id="logo_final" data-name="logo final" transform="translate(294 22.215)">
      <g id="Group_43" data-name="Group 43" transform="translate(39.071 12.034)">
        <path id="Path_105" data-name="Path 105" d="M416.255,543.122a2.1,2.1,0,0,0-.759-1.678,8.453,8.453,0,0,0-1.9-1.179q-1.148-.532-2.487-1.1a12.613,12.613,0,0,1-2.487-1.389,7.085,7.085,0,0,1-1.9-2.049,5.868,5.868,0,0,1-.759-3.133,6.873,6.873,0,0,1,.549-2.857,5.362,5.362,0,0,1,1.565-2.017,6.731,6.731,0,0,1,2.406-1.193,11.473,11.473,0,0,1,3.1-.388,19.455,19.455,0,0,1,3.713.339,9.473,9.473,0,0,1,2.873.985l-1.389,3.713a7.769,7.769,0,0,0-2.13-.823,12.147,12.147,0,0,0-3.067-.371,3.927,3.927,0,0,0-2.374.614,1.948,1.948,0,0,0-.822,1.647,2.035,2.035,0,0,0,.759,1.615,8.742,8.742,0,0,0,1.906,1.195q1.146.549,2.487,1.13a13.464,13.464,0,0,1,2.487,1.4,7.155,7.155,0,0,1,1.9,2.035,5.583,5.583,0,0,1,.759,3.018,7.453,7.453,0,0,1-.6,3.115,5.917,5.917,0,0,1-1.678,2.18,7.1,7.1,0,0,1-2.616,1.292,12.832,12.832,0,0,1-3.375.418,18.019,18.019,0,0,1-4.262-.452,13.076,13.076,0,0,1-2.713-.9l1.421-3.777a8.925,8.925,0,0,0,.921.42,11.623,11.623,0,0,0,1.274.418,14,14,0,0,0,1.5.323,10.124,10.124,0,0,0,1.631.129,5.69,5.69,0,0,0,3.018-.662A2.229,2.229,0,0,0,416.255,543.122Z" transform="translate(-405.44 -526.14)" fill="#284f26"/>
        <path id="Path_106" data-name="Path 106" d="M528.96,551.58v-9.169a5.547,5.547,0,0,0-.549-2.842,2.18,2.18,0,0,0-2-.872,3.01,3.01,0,0,0-1.954.727,3.443,3.443,0,0,0-1.179,1.857v10.3h-4.2v-22.6h4.2v8.265h.129a5.829,5.829,0,0,1,1.9-1.647,5.984,5.984,0,0,1,2.873-.614,6.649,6.649,0,0,1,2.164.323,3.521,3.521,0,0,1,1.566,1.066,4.829,4.829,0,0,1,.937,2.017,13.76,13.76,0,0,1,.307,3.147v10.041h-4.2Z" transform="translate(-501 -528.528)" fill="#284f26"/>
        <path id="Path_107" data-name="Path 107" d="M625.42,575.253a9.082,9.082,0,0,1,2-6.311,7.191,7.191,0,0,1,5.618-2.211,8.421,8.421,0,0,1,3.357.614,6.267,6.267,0,0,1,2.356,1.728,7.428,7.428,0,0,1,1.4,2.7,12.264,12.264,0,0,1,.468,3.487,9.132,9.132,0,0,1-1.986,6.312,7.138,7.138,0,0,1-5.6,2.211,8.4,8.4,0,0,1-3.359-.614,6.416,6.416,0,0,1-2.374-1.728,7.252,7.252,0,0,1-1.421-2.7A12.338,12.338,0,0,1,625.42,575.253Zm4.326,0a9.416,9.416,0,0,0,.194,1.97,5.493,5.493,0,0,0,.581,1.581,2.8,2.8,0,0,0,1.017,1.05,2.9,2.9,0,0,0,1.5.372,2.757,2.757,0,0,0,2.453-1.195,6.891,6.891,0,0,0,.807-3.777,7.537,7.537,0,0,0-.743-3.6,2.628,2.628,0,0,0-2.519-1.371,2.853,2.853,0,0,0-2.421,1.161A6.466,6.466,0,0,0,629.746,575.253Z" transform="translate(-590.422 -560.272)" fill="#284f26"/>
        <path id="Path_108" data-name="Path 108" d="M739.243,528.98h4.2v7.748h.129a4.72,4.72,0,0,1,1.744-1.227,5.955,5.955,0,0,1,2.356-.452,5.27,5.27,0,0,1,4.439,1.986q1.532,1.986,1.534,6.054,0,4.358-2.148,6.618a7.738,7.738,0,0,1-5.891,2.259,19.5,19.5,0,0,1-3.779-.339,11.342,11.342,0,0,1-2.584-.759V528.98Zm7.2,9.621a2.881,2.881,0,0,0-1.888.6,3.743,3.743,0,0,0-1.114,1.728v7.038a3.83,3.83,0,0,0,1.114.355,7.885,7.885,0,0,0,1.274.1,2.992,2.992,0,0,0,2.6-1.243,6.91,6.91,0,0,0,.888-3.955Q749.316,538.6,746.442,538.6Z" transform="translate(-686.133 -528.528)" fill="#284f26"/>
      </g>
      <g id="Group_44" data-name="Group 44" transform="translate(111.201 12.08)">
        <path id="Path_109" data-name="Path 109" d="M866.529,578.559a1.2,1.2,0,0,0-.549-1.033,6.6,6.6,0,0,0-1.357-.71q-.806-.322-1.775-.662a6.668,6.668,0,0,1-1.776-.936,5.122,5.122,0,0,1-1.357-1.518,5.4,5.4,0,0,1,.872-6.022,5.987,5.987,0,0,1,4.1-1.26,13.21,13.21,0,0,1,3.325.387,9.605,9.605,0,0,1,2.324.872l-.937,3.034q-.742-.291-1.873-.613a8.319,8.319,0,0,0-2.291-.323q-1.874,0-1.873,1.453a1.075,1.075,0,0,0,.549.937,7.281,7.281,0,0,0,1.355.662q.807.308,1.776.662a7.751,7.751,0,0,1,1.776.92,4.836,4.836,0,0,1,1.356,1.468,4.427,4.427,0,0,1,.549,2.325,4.919,4.919,0,0,1-1.565,3.858,6.852,6.852,0,0,1-4.7,1.4,11.449,11.449,0,0,1-3.212-.436,9.862,9.862,0,0,1-2.437-1.018l1.163-3.131a11.126,11.126,0,0,0,1.97.823,8.017,8.017,0,0,0,2.519.4,2.785,2.785,0,0,0,1.5-.355A1.286,1.286,0,0,0,866.529,578.559Z" transform="translate(-858.81 -560.058)" fill="#4db048"/>
        <path id="Path_110" data-name="Path 110" d="M959.789,581.635a8.194,8.194,0,0,1-2.632,1.308,11.532,11.532,0,0,1-3.535.533q-3.907,0-5.715-2.277a9.783,9.783,0,0,1-1.807-6.246q0-4.262,2.033-6.393a7.527,7.527,0,0,1,5.715-2.13,8.9,8.9,0,0,1,2.388.323,5.561,5.561,0,0,1,2.067,1.066,5.228,5.228,0,0,1,1.453,2,7.854,7.854,0,0,1,.549,3.133,14.472,14.472,0,0,1-.08,1.453c-.054.515-.135,1.055-.242,1.613h-9.654a4.734,4.734,0,0,0,1.045,3.067,4,4,0,0,0,3.072,1.032,6.842,6.842,0,0,0,3.957-1.227Zm-5.992-11.85a2.919,2.919,0,0,0-2.425.985,4.88,4.88,0,0,0-.947,2.631H956.4a4.078,4.078,0,0,0-.53-2.679A2.355,2.355,0,0,0,953.8,569.785Z" transform="translate(-932.212 -560.066)" fill="#4db048"/>
        <path id="Path_111" data-name="Path 111" d="M1061.059,571.314a5.459,5.459,0,0,0-1.807-.355,2.957,2.957,0,0,0-1.889.6,2.876,2.876,0,0,0-1.017,1.534V583.52h-4.2V567.376h3.261l.484,2.13h.129a4.405,4.405,0,0,1,1.486-1.841,3.763,3.763,0,0,1,2.2-.646,6.15,6.15,0,0,1,1.906.355Z" transform="translate(-1021.39 -560.562)" fill="#4db048"/>
        <path id="Path_112" data-name="Path 112" d="M1116.828,577.718l.549,2.487h.161l.452-2.55,2.745-8.394h4.52l-6.749,16.3h-2.551l-7-16.3h4.875Z" transform="translate(-1069.153 -562.446)" fill="#4db048"/>
        <path id="Path_113" data-name="Path 113" d="M1218.54,528.691a2.13,2.13,0,0,1,.694-1.6,2.672,2.672,0,0,1,1.92-.662,2.914,2.914,0,0,1,1.985.662,2.049,2.049,0,0,1,.759,1.6,1.956,1.956,0,0,1-.759,1.566,3.006,3.006,0,0,1-1.985.63,2.749,2.749,0,0,1-1.92-.63A2.025,2.025,0,0,1,1218.54,528.691Zm.613,4.553h4.2v16.144h-4.2Z" transform="translate(-1161.308 -526.43)" fill="#4db048"/>
        <path id="Path_114" data-name="Path 114" d="M1278.635,582.013a6.99,6.99,0,0,1-2.34,1.082,10.812,10.812,0,0,1-2.826.371,7.847,7.847,0,0,1-3.277-.614,5.591,5.591,0,0,1-2.18-1.728,7.1,7.1,0,0,1-1.211-2.7,15.3,15.3,0,0,1-.371-3.486,9.616,9.616,0,0,1,1.841-6.311,6.578,6.578,0,0,1,5.36-2.211,11.356,11.356,0,0,1,2.857.291,9.677,9.677,0,0,1,1.954.743l-1,3.422a8.468,8.468,0,0,0-1.469-.549,6.484,6.484,0,0,0-1.663-.194,3.168,3.168,0,0,0-2.647,1.147,5.933,5.933,0,0,0-.9,3.664,7.551,7.551,0,0,0,.226,1.9,4.617,4.617,0,0,0,.678,1.518,3.151,3.151,0,0,0,1.179,1.017,3.669,3.669,0,0,0,1.7.372,5.237,5.237,0,0,0,1.807-.274,6.352,6.352,0,0,0,1.324-.662Z" transform="translate(-1201.579 -560.058)" fill="#4db048"/>
        <path id="Path_115" data-name="Path 115" d="M1364.549,581.635a8.194,8.194,0,0,1-2.632,1.308,11.531,11.531,0,0,1-3.535.533q-3.907,0-5.715-2.277a9.783,9.783,0,0,1-1.807-6.246q0-4.262,2.033-6.393a7.527,7.527,0,0,1,5.715-2.13,8.894,8.894,0,0,1,2.388.323,5.561,5.561,0,0,1,2.067,1.066,5.228,5.228,0,0,1,1.453,2,7.854,7.854,0,0,1,.549,3.133,14.472,14.472,0,0,1-.08,1.453c-.054.515-.135,1.055-.242,1.613h-9.654a4.733,4.733,0,0,0,1.045,3.067,4,4,0,0,0,3.072,1.032,6.843,6.843,0,0,0,3.957-1.227Zm-5.992-11.85a2.919,2.919,0,0,0-2.425.985,4.88,4.88,0,0,0-.947,2.631h5.973a4.078,4.078,0,0,0-.53-2.679A2.355,2.355,0,0,0,1358.557,569.785Z" transform="translate(-1272.576 -560.066)" fill="#4db048"/>
      </g>
      <g id="Group_45" data-name="Group 45">
        <path id="Path_116" data-name="Path 116" d="M184.26,452.319a16.624,16.624,0,0,0-2.905-1.155,16.773,16.773,0,0,0-11.568,31.406q.363.162.729.305a1.535,1.535,0,0,0,2.071-1.78c-.865-3.511-2.418-9.812-3.411-13.842a4.943,4.943,0,0,1,2.485-5.556l12.591-6.681A1.526,1.526,0,0,0,184.26,452.319Z" transform="translate(-159.859 -450.5)" fill="#4db048"/>
        <path id="Path_117" data-name="Path 117" d="M200.876,575.979a16.63,16.63,0,0,0,2.905,1.155,16.773,16.773,0,0,0,11.568-31.406q-.363-.162-.729-.306a1.535,1.535,0,0,0-2.071,1.78c.84,3.406,2.324,9.434,3.32,13.471a5.433,5.433,0,0,1-2.732,6.1l-12.254,6.5A1.528,1.528,0,0,0,200.876,575.979Z" transform="translate(-193.67 -530.227)" fill="#4db048"/>
      </g>
    </g>
  </g>
</svg>
