<?xml version="1.0" encoding="utf-8"?>
<!-- Generator: Adobe Illustrator 23.0.5, SVG Export Plug-In . SVG Version: 6.00 Build 0)  -->
<svg version="1.1" id="Layer_1" xmlns="http://www.w3.org/2000/svg" xmlns:xlink="http://www.w3.org/1999/xlink" x="0px" y="0px"
	 viewBox="0 0 651 585.3" style="enable-background:new 0 0 651 585.3;" xml:space="preserve">
<style type="text/css">
	.st0{fill:#4DB048;}
</style>
<g>
	<g id="iconos_23_">
		<path class="st0" d="M409.2,416.1l14.3-9.8l3.6-2.4l-51.2-75.2l132.5-90.3c6-4.1,9.4-9,10.2-14.7c1.2-8.6-4.4-15.4-4.5-15.4
			L471,145.2c-0.2-0.5-5.3-11.9-17.1-11.9c-4.4,0-9.1,1.6-13.8,4.9l-15.5,10.6c1,1.1,1.9,2.1,2.9,3.3c3.6,4.3,7.2,8.9,10.5,13.8l0,0
			c0.8,1.2,1.6,2.4,2.4,3.6l10.8-7.4l39,57.3l-132.5,90.3c-5.7,3.9-9,8.6-9.9,14.2c-1.4,8.7,4.1,15.8,4.2,15.9l53.7,78.8
			L409.2,416.1z"/>
		<path class="st0" d="M179.1,347.5c-0.8-1.2-1.7-2.3-2.5-3.5l0,0c-3.4-5-6.3-10.1-8.8-15c-0.7-1.4-1.2-2.7-1.8-4l-23.1,15.7
			l14.6,21.5L179.1,347.5z"/>
		<path class="st0" d="M416.7,442.5l71.4,104.8c0,0,9.8,9.5,23.7-0.4c14-10,5.6-19.3,5.6-19.3l-75.1-105.7l14.3-9.8l-7.8-12.6
			l-20.5,14l-14.3,9.8l-21.5,14.6l9.8,14.3L416.7,442.5z"/>
		<path class="st0" d="M423.6,175.6L423.6,175.6c-3.3-4.9-7-9.5-10.6-13.8c-8.3-9.7-16.6-17.5-21.7-21.9L172.2,289.2
			c1.3,6.3,4.3,17.6,10.1,29.9c2.4,5,5.2,10.1,8.6,15.1l0,0c11.8,17.3,27.5,28.9,35,33.8L445,218.7
			C441.7,209.6,434.5,191.6,423.6,175.6z"/>
		<path class="st0" d="M356.7,104.3l-34.3-53.4c-3.2-4.9-10.6-5.7-16.6-1.9c-6,3.9-8.4,11-5.2,15.9l0.9,1.4c-2.6,0-5.3,0.6-7.8,2.3
			c-6,3.9-8.4,11-5.2,15.9l7.6,11.9c-3.2-4.9-10.6-5.7-16.6-1.9s-8.4,11-5.2,15.9l-7.6-11.9c-3.2-4.9-10.6-5.7-16.6-1.9
			c-6,3.9-8.4,11-5.2,15.9l3.8,5.9c-3.2-4.9-10.6-5.7-16.6-1.9c-6,3.9-8.4,11-5.2,15.9l3.8,5.9c-3.2-4.9-10.6-5.7-16.6-1.9
			c-6,3.9-8.4,11-5.2,15.9l-7.6-11.9c-3.2-4.9-10.6-5.7-16.6-1.9c-6,3.9-8.4,11-5.2,15.9l7.6,11.9c-3.2-4.9-10.6-5.7-16.6-1.9
			c-2.7,1.7-4.6,4.1-5.6,6.6l-7.2-11.2c-3.2-4.9-10.6-5.7-16.6-1.9c-6,3.9-8.4,11-5.2,15.9l3.8,5.9c-3.2-4.9-10.6-5.7-16.6-1.9
			c-6,3.9-8.4,11-5.2,15.9l34.3,53.4c3.2,4.9,10.6,5.7,16.6,1.9c6-3.9,8.4-11,5.2-15.9l-3.8-5.9c3.2,4.9,10.6,5.7,16.6,1.9
			c2.7-1.7,4.6-4.1,5.6-6.6L199,234c3.2,4.9,10.6,5.7,16.6,1.9c6-3.9,8.4-11,5.2-15.9l-7.6-11.9c3.2,4.9,10.6,5.7,16.6,1.9
			c6-3.9,8.4-11,5.2-15.9l7.6,11.9c3.2,4.9,10.6,5.7,16.6,1.9c6-3.9,8.4-11,5.2-15.9l-3.8-5.9c3.2,4.9,10.6,5.7,16.6,1.9
			c6-3.9,8.4-11,5.2-15.9l-3.8-5.9c3.2,4.9,10.6,5.7,16.6,1.9c6-3.9,8.4-11,5.2-15.9l7.6,11.9c2.3,3.6,6.8,4.9,11.4,3.9
			c1.8-0.4,3.5-1,5.2-2.1c1.9-1.2,3.5-2.9,4.6-4.6c2.3-3.7,2.8-8,0.6-11.3l-7.6-11.9c3.2,4.9,10.6,5.7,16.6,1.9
			c6-3.9,8.4-11,5.2-15.9l-0.9-1.4c2.6,0,5.3-0.6,7.8-2.2c2.9-1.9,4.9-4.5,5.9-7.2C358.5,110,358.3,106.8,356.7,104.3z"/>
	</g>
</g>
</svg>
