<?xml version="1.0" encoding="utf-8"?>
<!-- Generator: Adobe Illustrator 23.0.5, SVG Export Plug-In . SVG Version: 6.00 Build 0)  -->
<svg version="1.1" id="Layer_1" xmlns="http://www.w3.org/2000/svg" xmlns:xlink="http://www.w3.org/1999/xlink" x="0px" y="0px"
	 viewBox="0 0 651 585.3" style="enable-background:new 0 0 651 585.3;" xml:space="preserve">
<style type="text/css">
	.st0{fill:#4DB048;}
</style>
<g>
	<path class="st0" d="M325.2,16.6c152.4-0.5,275.9,123,276.4,276.6c0.5,151.9-123.5,275.2-277.4,275.6
		c-151,0.4-274.4-123.9-274.8-277C49,140.8,172.9,17.1,325.2,16.6z M493,470.7C372.8,361,253,251.7,133.2,142.3
		C63.7,225.3,55.6,372,155.4,468.6C255.1,565,405.8,555,493,470.7z M153.9,118.9c120.1,109.7,240.3,219.4,360.5,329
		c82.3-98.4,75.2-253.1-31.4-342.6C375.5,15.1,229.3,39.6,153.9,118.9z"/>
	<path class="st0" d="M257.2,375.7c-5.8,4.1-11.1,7.8-16.5,11.5c-8.4,5.6-17.9,4.3-23-3.1c-5.2-7.6-3.1-16.5,5.3-22.5
		c6.7-4.8,13.6-9.4,20.2-14.3c1.4-1.1,2.9-3.5,2.7-5.1c-1.4-9.8-3.2-19.5-4.9-29.8c-7.2,1.9-14.3,3.8-21.4,5.6
		c-10,2.5-18.2-1.7-20.6-10.5c-2.4-9,2.5-16.9,12.4-19.6c12.5-3.4,25.2-6.6,37.7-9.9c13.3-3.5,23.5,3.6,23.4,19
		c-0.3,50,19,91.4,57.4,123.7c0.7,0.6,1.4,1,2.6,1.8c10.5-7.8,18.6-17.7,26.1-28.3c2.8-3.9,7.4-7.3,12-8.8c6-2,11.5,0.9,15.2,6.2
		c3.5,5.1,4,10.8,0.9,16c-11.5,19.9-27.2,35.9-46.8,47.9c-6.2,3.8-12.4,2.4-18.2-1.7c-27.1-19.2-48-43.7-62.3-73.7
		C258.8,378.8,258.2,377.6,257.2,375.7z"/>
	<path class="st0" d="M423.6,301.7c-0.1,2.5-0.3,4.5-0.3,6.4c-0.3,11-6.3,17.6-15.8,17.5c-9.7-0.1-15-7.1-15.6-18.5
		c-0.8-15.5-1.1-31.3-4.2-46.5c-7.7-37.1-27-67.7-55.8-93.1c-12.2,9.2-21.9,20.3-30.3,32.8c-1.1,1.6-2.1,3.3-3.1,4.9
		c-5.5,8.2-14.3,10.8-21.9,6.3c-7.9-4.7-10.5-14.5-4.5-22.6c10-13.3,20.9-25.9,31.6-38.7c1.6-2,3.8-3.5,6.3-5.8
		c-4.4-10.3-9-20.8-13.4-31.3c-2.7-6.4-1.8-12.4,3.2-17.4c4.6-4.6,10.4-6.2,16.1-3.5c3.6,1.7,7,5.1,9.1,8.6c3,4.9,4.9,10.6,7.7,17.1
		c3.6-6.5,6.6-12.4,9.8-18c3.8-6.6,9.6-9.7,16.1-8.7c6.6,1,11.7,4.7,12.8,11.3c0.7,4.1-0.3,9.1-2,13c-3.9,8.9-9,17.3-13.2,26.1
		c-0.8,1.6-0.6,4.9,0.5,5.9c17.6,16.2,31.8,34.9,43.2,55.8c0.2,0.3,0.7,0.5,1.6,1.1c5.6-3.4,11.5-7.1,17.4-10.6
		c9.3-5.5,18.5-3.7,23.2,4.4c4.6,7.9,2,16.7-6.9,22.2c-6.2,3.9-12.7,7.5-18.8,11.6c-1.4,1-2.6,3.9-2.3,5.6c1.8,9.1,4,18.2,6.5,27.2
		c0.5,1.7,2.9,3.5,4.8,4.2c8.8,3,17.8,5.6,26.6,8.5c9.9,3.2,14.6,11.3,11.8,19.9c-2.8,8.9-11,12.8-20.9,10
		C436.7,305.8,430.4,303.8,423.6,301.7z"/>
</g>
</svg>
