<svg xmlns="http://www.w3.org/2000/svg" width="16.992" height="24.167" viewBox="0 0 16.992 24.167">
  <g id="placeholder" transform="translate(-76)">
    <g id="Group_123" data-name="Group 123" transform="translate(76)">
      <g id="Group_122" data-name="Group 122">
        <path id="Path_531" data-name="Path 531" d="M84.5,0a8.5,8.5,0,0,0-7.228,12.964l6.744,10.868a.708.708,0,0,0,.6.335h.006a.708.708,0,0,0,.6-.344l6.572-10.974A8.5,8.5,0,0,0,84.5,0Zm6.083,12.122L84.6,22.1l-6.132-9.881a7.085,7.085,0,1,1,12.107-.1Z" transform="translate(-76)"/>
      </g>
    </g>
    <g id="Group_125" data-name="Group 125" transform="translate(80.248 4.248)">
      <g id="Group_124" data-name="Group 124">
        <path id="Path_532" data-name="Path 532" d="M170.248,90a4.248,4.248,0,1,0,4.248,4.248A4.253,4.253,0,0,0,170.248,90Zm0,7.09a2.841,2.841,0,1,1,2.837-2.841A2.844,2.844,0,0,1,170.248,97.09Z" transform="translate(-166 -90)"/>
      </g>
    </g>
  </g>
</svg>
