<?xml version="1.0" encoding="utf-8"?>
<!-- Generator: Adobe Illustrator 23.0.5, SVG Export Plug-In . SVG Version: 6.00 Build 0)  -->
<svg version="1.1" id="Layer_1" xmlns="http://www.w3.org/2000/svg" xmlns:xlink="http://www.w3.org/1999/xlink" x="0px" y="0px"
	 viewBox="0 0 651 585.3" style="enable-background:new 0 0 651 585.3;" xml:space="preserve">
<style type="text/css">
	.st0{fill:#4DB048;}
</style>
<g>
	<path class="st0" d="M78.4,113.6c-8.1-0.4-14.6-0.7-21.7-1.1c0-14.5,0-28.5,0-43.2c49.3,0,98.1,0,147.9,0c0,14,0,28,0,43.1
		c-6.4,0.4-13.2,0.8-20.6,1.2c0,26.6,0,52.6,0,79.6c26.8,0,53.6,0,81.3,0c0.3-6.5,0.6-13,1-20.3c14.3,0,28.3,0,43.2,0
		c0,48.5,0,97.1,0,146.3c-14.4,0-28.5,0-43.1,0c-0.4-7.1-0.7-13.5-1.1-21c-4.4-0.2-8.2-0.6-12.1-0.6c-36.5,0-73.1,0.1-109.6-0.1
		c-41-0.1-65.1-24.5-65.2-65.7c0-35.1,0-70.1,0-105.2C78.4,122.7,78.4,118.7,78.4,113.6z"/>
	<path class="st0" d="M572.7,378.3c7.9,0.4,14.4,0.7,21.6,1c0,14.4,0,28.4,0,43.1c-49.3,0-98.4,0-148.1,0c0-14.5,0-28.5,0-43
		c7.4-0.5,14.2-0.9,21.3-1.3c0-26.7,0-52.6,0-79.4c-27,0-53.8,0-81.6,0c-0.4,6.6-0.8,13.3-1.2,20.6c-14.7,0-28.8,0-43.4,0
		c0-49.1,0-97.5,0-146.6c14.5,0,28.5,0,43.8,0c0,6.8,0,13.2,0,20.7c4.9,0.3,8.8,0.7,12.6,0.7c36.5,0.1,73.1-0.1,109.6,0.1
		c41.2,0.1,65.4,24.4,65.4,65.5C572.7,298.7,572.7,337.8,572.7,378.3z"/>
	<path class="st0" d="M518.7,457.4c17.2,28.2,33.6,52.4,41.2,80.8c4.2,15.9-4.1,32.3-18.5,41c-14.6,8.9-32.6,8-46.2-2.2
		c-13.7-10.2-20.7-27-14.1-42.4C491.9,509.4,505.1,485.1,518.7,457.4z"/>
</g>
</svg>
