<svg xmlns="http://www.w3.org/2000/svg" width="54.518" height="53.926" viewBox="0 0 54.518 53.926">
  <g id="Group_254" data-name="Group 254" transform="translate(-526.547 -515.851)">
    <path id="Path_540" data-name="Path 540" d="M35.939,38.758v-.666c0-2.008-.012-4.028,0-6.037a4.7,4.7,0,0,1,4.787-4.8q6.691-.018,13.382,0a4.768,4.768,0,0,1,3.468,1.495c1.646-1.88,3.888-1.46,6.037-1.6-.385-.21-.771-.42-1.156-.642a.932.932,0,0,1-.012-1.763,12.938,12.938,0,0,0,2.826-1.658A12.577,12.577,0,0,0,66.894,20.3c.467-.817,1.249-.806,1.728.012a2.976,2.976,0,0,1,.269.5,6.2,6.2,0,0,0,3.725,3.713c.49.2,1.063.42,1.039,1.133-.012.677-.549.887-1.028,1.074a6.324,6.324,0,0,0-3.783,3.807,3.329,3.329,0,0,1-.187.35c-.187.385-.479.736-.9.642a1.4,1.4,0,0,1-.887-.654c-.35-.946-.969-1.121-1.88-1.074-1.273.07-2.546.012-3.818.023a2.152,2.152,0,0,0-2.335,2.347c-.012,5.453,0,10.894,0,16.347,0,.058.012.105.023.222a2.714,2.714,0,0,0,.327-.187,7.651,7.651,0,0,1,4.823-1.588c2.125.012,4.25,0,6.376,0h.677V44.982c0-.759-.012-1.518,0-2.277a3.91,3.91,0,0,1,3.958-3.923c.514-.012,1.016,0,1.576,0,.012-.222.035-.409.035-.6,0-1.973.012-3.947,0-5.92a2.182,2.182,0,0,0-2.417-2.44H70.327a2.168,2.168,0,0,1,1.2-1.448,4.481,4.481,0,0,0,.9-.49c2.534-1.8,6.06.42,6.562,2.756a7.7,7.7,0,0,1,.2,1.46c.023,1.973.012,3.947.012,5.92v.747h1.623a3.888,3.888,0,0,1,3.993,4.005q.018,8.145-.012,16.289a4.71,4.71,0,0,1-4.869,4.893h-.724v1.88a4.046,4.046,0,1,1-8.092-.035V64H44.008v1.775a4.047,4.047,0,1,1-8.092-.023v-1.8c-.327,0-.631.012-.922,0a4.689,4.689,0,0,1-4.671-4.694q-.035-8.285,0-16.569a3.879,3.879,0,0,1,3.958-3.912C34.83,38.758,35.355,38.758,35.939,38.758ZM32.88,55.795c0,1.226-.035,2.394.012,3.573a2.165,2.165,0,0,0,2.032,2.02c.3.023.607.012.911.012H79.9a2.151,2.151,0,0,0,2.335-1.938c.082-1.2.023-2.417.023-3.667Zm23.435-6.609V32.418c0-1.81-.794-2.6-2.592-2.616H40.972A2.208,2.208,0,0,0,38.5,32.254v5.92c0,.175.012.362.023.572.572,0,1.086-.012,1.6,0a3.92,3.92,0,0,1,3.958,3.935c.012.514,0,1.028,0,1.541v2.721h2.908c1.214,0,2.429.012,3.643-.012A7.844,7.844,0,0,1,56.315,49.186ZM41.521,53.191V42.95c0-1.133-.49-1.635-1.623-1.635-1.8-.012-3.608-.012-5.406,0-1.121,0-1.611.514-1.611,1.658V53.2C35.787,53.191,38.613,53.191,41.521,53.191Zm40.74,0c.012-.117.035-.187.035-.269,0-3.4.012-6.8,0-10.194A1.351,1.351,0,0,0,80.8,41.3c-1.857-.012-3.713-.012-5.581,0a1.381,1.381,0,0,0-1.565,1.576v10.3C76.563,53.191,79.377,53.191,82.261,53.191ZM71.074,49.547a1.456,1.456,0,0,0-.21-.047c-2.405,0-4.823-.058-7.228.012a4.8,4.8,0,0,0-4.39,3.024,4.6,4.6,0,0,0-.21.642h12.05C71.074,51.965,71.074,50.774,71.074,49.547Zm-15.32,3.631a7.407,7.407,0,0,0-.292-.782,4.9,4.9,0,0,0-4.6-2.9c-2.125-.023-4.25-.012-6.376,0-.128,0-.257.035-.385.047v3.631ZM67.77,28.693a5.007,5.007,0,0,1,3.071-3.071,4.915,4.915,0,0,1-3.083-3.071A4.853,4.853,0,0,1,64.7,25.622,5.007,5.007,0,0,1,67.77,28.693ZM38.5,63.98c0,.724-.058,1.425.012,2.114a1.416,1.416,0,0,0,1.413,1.238A1.392,1.392,0,0,0,41.4,66.187a20,20,0,0,0,.023-2.219C40.446,63.98,39.489,63.98,38.5,63.98Zm35.217-.012c0,.736-.058,1.436.012,2.125a1.475,1.475,0,0,0,2.9.082,20,20,0,0,0,.023-2.219C75.663,63.968,74.729,63.968,73.713,63.968Z" transform="translate(496.242 499.865)" fill="#1cbe32"/>
    <path id="Path_541" data-name="Path 541" d="M44.3,21.191c-.257.327-.409.712-.666.817a5.89,5.89,0,0,0-3.34,3.328.855.855,0,0,1-1.611,0,5.924,5.924,0,0,0-3.34-3.328.857.857,0,0,1,.023-1.611A5.888,5.888,0,0,0,38.656,17.1a.863.863,0,0,1,1.635,0,5.839,5.839,0,0,0,3.3,3.293C43.863,20.5,44.027,20.876,44.3,21.191Zm-6.586.035a3.08,3.08,0,0,1,1.787,1.9,2.9,2.9,0,0,1,1.938-1.938,2.9,2.9,0,0,1-1.973-1.88A3.021,3.021,0,0,1,37.71,21.226Z" transform="translate(496.994 499.333)" fill="#1cbe32"/>
  </g>
</svg>
