<?xml version="1.0" encoding="utf-8"?>
<!-- Generator: Adobe Illustrator 23.0.5, SVG Export Plug-In . SVG Version: 6.00 Build 0)  -->
<svg version="1.1" id="Layer_1" xmlns="http://www.w3.org/2000/svg" xmlns:xlink="http://www.w3.org/1999/xlink" x="0px" y="0px"
	 viewBox="0 0 651 585.3" style="enable-background:new 0 0 651 585.3;" xml:space="preserve">
<style type="text/css">
	.st0{fill:#4DB048;}
</style>
<g>
	<path class="st0" d="M526.4,115.7c-39.7-22.9-94.5-23.9-142.8-2.5c-44.8,19.8-77,63.4-96.1,96.1c-8.6-2.1-17.8,2-21.8,10.3
		c-3.8,7.9-1.6,17.2,4.8,22.7c-1.7,3.9-2.8,6.5-3.2,7.5l-92.7,203.5c-9.3-4.3-20.5-0.5-25.1,8.8c-4.7,9.5-0.8,20.9,8.6,25.6l0.6,0.3
		l-20.8,45.8H86.1c-10.6,0-19.1,8.6-19.1,19.1s8.6,19.1,19.1,19.1h95.6c10.6,0,19.1-8.6,19.1-19.1s-8.6-19.1-19.1-19.1h-1.8
		l13.3-29.1c1.8,0.5,3.5,0.9,5.3,0.9c7,0,13.8-3.9,17.1-10.6c4.4-8.8,1.3-19.3-6.8-24.5l96-210.9c2.6,1.2,5.3,1.8,8,1.8
		c7.1,0,14-4,17.3-10.9c4.4-9.1,0.8-19.9-7.8-24.8c16.4-27.6,42.6-62.4,76.8-77.5c36.9-16.3,79.4-16,108.3,0.6
		c21.3,12.3,33.5,31.8,36.3,58c5.3,49.1,0.8,82.1-13.4,98c-1.3,1.5-2.8,2.7-4.2,3.9v42.8c11.8-4,23.1-10.5,32.7-21.2
		c22.1-24.6,29.6-66.4,23-127.6C577.6,164.8,557.9,133.9,526.4,115.7z"/>
	<path class="st0" d="M472,438.3c12.5,0,24.3,2.8,34.9,7.8V356v-38.8v-22.3c0-10.6,1-9.6-9.6-9.6h-37.5
		c-10.6,0-117.1,8.8-145.3,147.9l-18.1,115c0,10.6,8.6,23.9,19.1,23.9h90.8c-10.9-14.1-17.5-31.7-17.5-50.8
		C388.9,475.6,426.2,438.3,472,438.3z"/>
	<path class="st0" d="M516.4,475.5c-2.9-2.8-6.1-5.4-9.6-7.6c-10-6.6-22-10.4-34.9-10.4c-35.3,0-64,28.7-64,64
		c0,20.7,9.9,39.1,25.3,50.8c5.3,4.1,11.3,7.3,17.8,9.6c6.6,2.3,13.6,3.6,20.9,3.6c7.3,0,14.4-1.3,20.9-3.6
		c6.8-2.4,13-5.8,18.6-10.2c5.2-4.1,9.8-8.9,13.5-14.4c6.9-10.2,11-22.5,11-35.8c0-12.5-3.7-24.2-9.9-34.1
		C523.3,483,520.1,479.1,516.4,475.5z M472,489.3c17.7,0,32.1,14.4,32.1,32.1c0,17.7-14.4,32.1-32.1,32.1s-32.1-14.4-32.1-32.1
		C439.9,503.7,454.2,489.3,472,489.3z"/>
</g>
</svg>
