<svg xmlns="http://www.w3.org/2000/svg" width="44.709" height="54.962" viewBox="0 0 44.709 54.962"><g transform="translate(-26.992 -9.4)"><path d="M31.885,65.487A.888.888,0,0,0,31.7,65.4a3.2,3.2,0,0,1-2.279-4.345,33.488,33.488,0,0,0,1.774-7.546A34.5,34.5,0,0,0,30.236,40.8a1.046,1.046,0,0,0-.505-.55,4.936,4.936,0,0,1-2.625-3.29,6.148,6.148,0,0,1,.2-3.077,29.156,29.156,0,0,1,7.2-12.2,6.7,6.7,0,0,1,5.152-2.341,4.385,4.385,0,0,1,4.07,2.563,36.351,36.351,0,0,0,8.167,11.067,1.179,1.179,0,0,0,1.366.284c2.137-.745,4.3-1.428,6.456-2.128.168-.053.328-.124.479-.186-.106-1.064.062-1.321,1.082-1.658,1.241-.408,2.474-.825,3.716-1.224a1.08,1.08,0,0,1,1.605.807c.213.63.426,1.25.612,1.889a.994.994,0,0,1-.683,1.357q-2.128.718-4.274,1.4c-.665.213-1.038-.009-1.463-.825-.8.257-1.605.523-2.412.789q-2.394.785-4.789,1.561a.771.771,0,0,0-.594.585,1.983,1.983,0,0,1-2.944,1.135,1.32,1.32,0,0,0-1.366-.106c-.151.062-.3.1-.532.168-.124-.647-.585-1.2-.408-1.924-1.144-1.374-2.332-2.847-3.574-4.274A11.179,11.179,0,0,1,41.852,24.5a8.33,8.33,0,0,0-.168-1.162,2.592,2.592,0,0,0-5.072.869,18.259,18.259,0,0,0,1.445,6.34,2.621,2.621,0,0,1-.248,2.9,22.4,22.4,0,0,0-1.72,3.263,1.1,1.1,0,0,0-.035.754,41.816,41.816,0,0,1,1.72,15.421,38.624,38.624,0,0,1-2.279,10.437,3.419,3.419,0,0,1-2.536,2.164Z" transform="translate(0 -1.125)" fill="#1cbe32"/><path d="M47.238,52.046h.709c5.436,0,10.872.009,16.316-.018a3.416,3.416,0,0,0,1.445-.435,1.421,1.421,0,0,0,.7-1.41c-.018-2.27-.009-4.54-.009-6.819,0-1.428.559-2,1.977-2,1.286,0,2.572-.009,3.866,0a1.592,1.592,0,0,1,1.747,1.774V66.97c0,.16-.018.319-.027.514-.2.009-.372.027-.55.027q-9.2,0-18.409.009c-.452,0-.647-.106-.736-.585-.479-2.439-1.011-4.859-1.5-7.3a.634.634,0,0,0-.568-.576,8.256,8.256,0,0,1-3.228-1.516,4.185,4.185,0,0,1-1.756-3.45C47.247,53.447,47.238,52.791,47.238,52.046Z" transform="translate(-2.291 -3.62)" fill="#1cbe32"/><path d="M51.09,9.4a5.844,5.844,0,1,1-5.87,5.791A5.864,5.864,0,0,1,51.09,9.4Z" transform="translate(-2.064 0)" fill="#1cbe32"/><path d="M38.46,25.2c-.044-1.809.745-2.776,1.889-2.847a2.047,2.047,0,0,1,2.235,1.915c.514,5.356,3.015,9.719,6.731,13.479.612.621,1.295,1.179,1.942,1.765a2.086,2.086,0,0,1,.239,2.935,2.053,2.053,0,0,1-2.935.222,27.6,27.6,0,0,1-9.506-14.437C38.752,27.058,38.593,25.852,38.46,25.2Z" transform="translate(-1.298 -1.466)" fill="#1cbe32"/><path d="M53.248,44.309a8.638,8.638,0,0,1,1.277.851,1.3,1.3,0,0,1,.355.878,17,17,0,0,1-.213,1.827c.692.124,1.383.248,2.155.381-.089.532-.168,1.038-.239,1.463-1.437,0-2.82.018-4.212-.009a1.929,1.929,0,0,1-.745-.284,20.1,20.1,0,0,1-5.125-3.84c-.86-.887-.834-1.49.027-2.447.727.665,1.481,1.295,2.173,1.986A2.7,2.7,0,0,0,53.248,44.309Z" transform="translate(-2.137 -3.819)" fill="#1cbe32"/></g></svg>